<svg id="svg" version="1.1" xmlns="http://www.w3.org/2000/svg" xmlns:xlink="http://www.w3.org/1999/xlink" width="400" height="459.3431483578709" viewBox="0, 0, 400,459.3431483578709"><g id="svgg"><path id="path0" d="" stroke="none" fill="#040404" fill-rule="evenodd"></path><path id="path1" d="" stroke="none" fill="#080404" fill-rule="evenodd"></path><path id="path2" d="" stroke="none" fill="#080404" fill-rule="evenodd"></path><path id="path3" d="" stroke="none" fill="#080404" fill-rule="evenodd"></path><path id="path4" d="M144.567 8.732 C 139.829 9.124,138.426 9.275,136.525 9.601 C 131.519 10.458,128.182 11.531,123.791 13.696 C 119.712 15.708,111.833 20.420,107.324 23.545 C 91.560 34.471,84.131 38.565,76.975 40.269 C 72.446 41.347,71.531 41.440,65.294 41.448 L 59.454 41.455 55.720 40.730 C 53.667 40.331,50.836 39.786,49.429 39.519 C 47.154 39.087,45.012 38.465,41.248 37.141 C 38.119 36.041,35.170 39.576,36.924 42.327 C 38.212 44.349,41.220 46.645,45.369 48.775 C 57.690 55.100,63.926 64.435,65.808 79.368 C 66.130 81.921,66.436 104.171,66.164 105.253 C 66.064 105.654,63.895 108.269,62.700 109.430 C 62.483 109.641,61.910 110.330,61.426 110.962 C 60.941 111.594,60.385 112.283,60.190 112.494 C 59.995 112.705,59.369 113.480,58.799 114.217 C 58.228 114.955,57.573 115.752,57.342 115.989 C 57.110 116.226,56.672 116.786,56.369 117.233 C 56.065 117.681,55.622 118.261,55.385 118.524 C 55.148 118.786,54.955 119.060,54.955 119.132 C 54.955 119.205,54.847 119.378,54.715 119.517 C 54.584 119.656,54.227 120.136,53.923 120.584 C 53.619 121.032,53.296 121.398,53.205 121.398 C 53.114 121.398,53.040 121.487,53.040 121.597 C 53.040 121.821,52.396 122.767,51.747 123.495 C 51.510 123.761,51.316 124.088,51.316 124.222 C 51.316 124.356,51.144 124.613,50.933 124.793 C 50.723 124.973,50.551 125.231,50.551 125.366 C 50.551 125.500,50.470 125.610,50.372 125.610 C 50.274 125.610,50.141 125.775,50.077 125.976 C 50.014 126.177,49.708 126.629,49.397 126.981 C 49.087 127.333,48.832 127.715,48.830 127.831 C 48.829 127.946,48.656 128.248,48.448 128.501 C 47.838 129.240,47.783 129.320,47.535 129.823 C 47.276 130.347,46.872 131.013,46.721 131.163 C 46.374 131.510,45.764 132.536,45.764 132.772 C 45.764 132.928,45.686 133.104,45.590 133.163 C 45.495 133.221,44.999 133.967,44.489 134.818 C 43.979 135.670,43.412 136.596,43.229 136.877 C 43.047 137.157,42.810 137.559,42.703 137.769 C 42.511 138.149,42.388 138.372,41.967 139.110 C 41.847 139.320,41.619 139.751,41.462 140.067 C 41.305 140.383,41.074 140.814,40.950 141.024 C 40.626 141.575,40.470 141.864,39.916 142.939 C 39.645 143.466,39.256 144.155,39.053 144.471 C 38.849 144.787,38.632 145.175,38.570 145.333 C 38.507 145.491,38.162 146.231,37.802 146.978 C 37.442 147.725,37.147 148.435,37.147 148.557 C 37.147 148.679,37.061 148.779,36.955 148.779 C 36.850 148.779,36.764 148.878,36.764 148.998 C 36.764 149.210,36.123 150.693,35.783 151.269 C 35.689 151.427,35.564 151.685,35.504 151.843 C 35.445 152.001,35.316 152.259,35.217 152.417 C 35.119 152.575,34.989 152.834,34.928 152.992 C 34.823 153.268,34.390 154.248,33.747 155.673 C 33.405 156.429,33.002 157.364,32.591 158.353 C 32.438 158.722,32.194 159.267,32.049 159.566 C 31.904 159.864,31.786 160.262,31.786 160.452 C 31.786 160.641,31.656 160.903,31.498 161.034 C 31.340 161.165,31.211 161.458,31.211 161.685 C 31.211 161.912,31.093 162.268,30.948 162.475 C 30.804 162.683,30.620 163.155,30.541 163.523 C 30.461 163.892,30.278 164.363,30.134 164.571 C 29.989 164.779,29.868 165.123,29.865 165.337 C 29.861 165.551,29.732 165.892,29.577 166.097 C 29.423 166.301,29.296 166.651,29.296 166.874 C 29.296 167.097,29.170 167.447,29.015 167.651 C 28.861 167.856,28.731 168.249,28.728 168.526 C 28.725 168.803,28.593 169.136,28.435 169.268 C 28.277 169.399,28.145 169.775,28.141 170.105 C 28.138 170.434,28.009 170.871,27.854 171.075 C 27.700 171.280,27.573 171.670,27.573 171.942 C 27.573 172.215,27.451 172.612,27.302 172.825 C 27.152 173.038,26.968 173.545,26.892 173.951 C 26.816 174.357,26.637 174.913,26.494 175.186 C 26.352 175.459,26.232 175.898,26.228 176.161 C 26.224 176.424,26.094 176.807,25.939 177.011 C 25.785 177.216,25.655 177.646,25.652 177.969 C 25.649 178.291,25.520 178.722,25.365 178.926 C 25.210 179.130,25.083 179.604,25.083 179.979 C 25.082 180.354,24.953 180.907,24.795 181.209 C 24.638 181.511,24.509 182.010,24.509 182.320 C 24.509 182.629,24.392 183.114,24.249 183.399 C 24.105 183.683,23.934 184.271,23.868 184.704 C 23.801 185.138,23.617 185.741,23.459 186.045 C 23.301 186.348,23.171 186.910,23.170 187.293 C 23.170 187.676,23.040 188.236,22.883 188.537 C 22.726 188.839,22.594 189.473,22.590 189.947 C 22.586 190.421,22.456 190.976,22.301 191.181 C 22.147 191.385,22.020 191.926,22.020 192.384 C 22.020 192.841,21.891 193.524,21.733 193.902 C 21.575 194.280,21.446 194.956,21.446 195.404 C 21.446 195.852,21.316 196.584,21.158 197.032 C 21.000 197.480,20.869 198.202,20.867 198.636 C 20.864 199.070,20.770 199.770,20.656 200.191 C 20.543 200.613,20.333 201.733,20.189 202.681 C 20.045 203.629,19.840 204.749,19.734 205.170 C 19.627 205.591,19.537 206.582,19.533 207.372 C 19.530 208.162,19.398 209.231,19.242 209.748 C 19.085 210.265,18.954 211.428,18.952 212.333 C 18.949 213.238,18.858 214.323,18.748 214.744 C 18.639 215.165,18.475 217.362,18.383 219.627 C 18.292 221.891,18.104 225.294,17.965 227.190 C 17.660 231.341,17.663 233.074,17.979 237.338 C 18.112 239.129,18.294 242.446,18.385 244.710 C 18.475 246.975,18.639 249.172,18.748 249.593 C 18.858 250.014,18.953 251.178,18.960 252.178 C 18.968 253.247,19.087 254.313,19.249 254.763 C 19.401 255.184,19.530 256.175,19.536 256.965 C 19.543 257.755,19.636 258.789,19.743 259.263 C 19.851 259.737,20.019 260.771,20.116 261.561 C 20.213 262.350,20.387 263.209,20.501 263.468 C 20.615 263.728,20.753 264.547,20.806 265.288 C 20.860 266.029,21.026 266.960,21.175 267.357 C 21.324 267.754,21.446 268.498,21.446 269.010 C 21.446 269.523,21.574 270.189,21.732 270.490 C 21.889 270.792,22.018 271.432,22.019 271.912 C 22.020 272.392,22.147 272.952,22.301 273.156 C 22.456 273.361,22.586 273.916,22.590 274.390 C 22.594 274.864,22.726 275.498,22.883 275.800 C 23.040 276.101,23.169 276.637,23.169 276.989 C 23.169 277.342,23.341 278.068,23.552 278.602 C 23.763 279.137,23.935 279.776,23.935 280.023 C 23.935 280.271,24.064 280.720,24.221 281.022 C 24.378 281.323,24.511 281.829,24.515 282.145 C 24.519 282.461,24.646 282.934,24.797 283.198 C 24.947 283.461,25.073 283.983,25.077 284.358 C 25.081 284.733,25.210 285.207,25.365 285.411 C 25.520 285.615,25.649 286.095,25.652 286.477 C 25.655 286.859,25.787 287.279,25.945 287.410 C 26.103 287.541,26.233 287.920,26.233 288.253 C 26.233 288.585,26.350 289.027,26.493 289.235 C 26.636 289.442,26.811 289.932,26.883 290.322 C 26.954 290.713,27.138 291.273,27.292 291.567 C 27.445 291.861,27.574 292.317,27.578 292.580 C 27.582 292.843,27.712 293.226,27.866 293.431 C 28.021 293.635,28.150 294.023,28.154 294.292 C 28.157 294.562,28.286 294.949,28.441 295.154 C 28.595 295.358,28.722 295.708,28.722 295.931 C 28.722 296.154,28.848 296.504,29.003 296.708 C 29.158 296.913,29.287 297.255,29.290 297.468 C 29.294 297.682,29.413 298.026,29.556 298.234 C 29.699 298.442,29.876 298.935,29.948 299.330 C 30.020 299.725,30.152 300.048,30.241 300.048 C 30.330 300.048,30.462 300.367,30.535 300.756 C 30.609 301.146,30.790 301.639,30.940 301.852 C 31.089 302.065,31.211 302.425,31.211 302.652 C 31.211 302.879,31.340 303.172,31.498 303.303 C 31.656 303.434,31.786 303.730,31.786 303.960 C 31.786 304.190,31.912 304.546,32.067 304.750 C 32.221 304.955,32.351 305.305,32.354 305.529 C 32.357 305.754,32.489 306.044,32.647 306.175 C 32.805 306.306,32.934 306.559,32.934 306.736 C 32.934 306.914,33.061 307.227,33.216 307.431 C 33.370 307.636,33.499 307.933,33.503 308.093 C 33.506 308.252,33.681 308.704,33.892 309.097 C 34.102 309.490,34.275 309.905,34.275 310.018 C 34.275 310.131,34.404 310.353,34.562 310.511 C 34.720 310.669,34.849 310.954,34.849 311.144 C 34.849 311.334,34.978 311.597,35.136 311.728 C 35.294 311.859,35.424 312.084,35.424 312.227 C 35.424 312.371,35.670 312.985,35.971 313.592 C 38.578 318.852,38.579 318.164,35.970 320.842 C 30.912 326.033,25.511 330.284,18.956 334.231 C 16.080 335.963,15.604 336.474,15.409 338.029 C 15.016 341.173,17.115 342.611,22.116 342.624 C 24.876 342.631,27.566 341.598,33.176 338.376 C 36.274 336.596,36.801 336.313,41.319 333.992 C 45.858 331.661,45.890 331.652,46.366 332.687 C 46.675 333.360,46.998 333.861,47.344 334.208 C 47.528 334.391,47.678 334.657,47.678 334.799 C 47.678 334.941,47.743 335.085,47.822 335.120 C 47.999 335.199,48.827 336.367,48.827 336.537 C 48.827 336.605,49.064 336.975,49.354 337.360 C 49.643 337.744,49.966 338.204,50.072 338.382 C 50.371 338.890,51.326 340.253,52.192 341.407 C 52.626 341.987,53.016 342.562,53.058 342.685 C 53.101 342.809,53.376 343.197,53.670 343.547 C 54.413 344.433,56.678 347.500,56.678 347.620 C 56.678 347.675,56.988 348.039,57.368 348.429 C 57.747 348.820,58.197 349.360,58.368 349.630 C 58.539 349.899,58.789 350.189,58.923 350.273 C 59.057 350.357,59.167 350.544,59.167 350.688 C 59.167 350.832,59.241 350.978,59.332 351.013 C 59.500 351.078,60.605 352.352,61.465 353.472 C 61.728 353.815,62.347 354.539,62.840 355.080 C 63.808 356.141,63.945 356.296,65.390 357.978 C 66.806 359.626,74.979 368.023,75.166 368.023 C 75.191 368.023,75.638 368.432,76.157 368.933 C 77.398 370.127,79.959 372.437,80.804 373.124 C 81.173 373.424,81.561 373.760,81.666 373.872 C 81.771 373.983,82.288 374.414,82.815 374.829 C 83.815 375.618,84.685 376.356,85.155 376.813 C 85.450 377.100,93.292 383.048,94.016 383.533 C 94.251 383.691,94.641 383.971,94.882 384.155 C 95.124 384.339,95.406 384.490,95.510 384.490 C 95.614 384.490,95.748 384.619,95.809 384.777 C 95.869 384.935,96.017 385.065,96.137 385.065 C 96.257 385.065,96.681 385.323,97.080 385.639 C 97.479 385.955,97.887 386.213,97.987 386.213 C 98.088 386.213,98.325 386.386,98.516 386.596 C 98.707 386.807,98.979 386.979,99.120 386.979 C 99.262 386.979,99.378 387.052,99.378 387.140 C 99.378 387.229,99.572 387.402,99.809 387.525 C 100.045 387.648,100.498 387.920,100.814 388.127 C 101.130 388.335,101.561 388.594,101.771 388.703 C 101.982 388.811,102.382 389.049,102.660 389.232 C 102.938 389.415,103.658 389.866,104.260 390.235 C 104.862 390.603,105.582 391.054,105.861 391.237 C 106.139 391.420,106.552 391.651,106.779 391.752 C 107.006 391.852,107.248 392.026,107.317 392.138 C 107.386 392.249,107.612 392.341,107.820 392.341 C 108.028 392.341,108.247 392.470,108.308 392.628 C 108.369 392.786,108.576 392.915,108.769 392.915 C 108.963 392.915,109.174 393.001,109.239 393.106 C 109.303 393.211,109.847 393.534,110.447 393.823 C 111.046 394.112,111.650 394.457,111.790 394.590 C 111.929 394.722,112.200 394.830,112.391 394.830 C 112.583 394.830,112.790 394.959,112.850 395.117 C 112.911 395.275,113.131 395.404,113.338 395.404 C 113.546 395.404,113.763 395.481,113.821 395.575 C 113.879 395.669,114.682 396.106,115.604 396.547 C 116.526 396.988,117.778 397.600,118.385 397.908 C 118.992 398.216,119.606 398.468,119.750 398.468 C 119.893 398.468,120.118 398.597,120.249 398.755 C 120.380 398.913,120.639 399.043,120.823 399.043 C 121.008 399.043,121.267 399.172,121.398 399.330 C 121.529 399.488,121.792 399.617,121.982 399.617 C 122.172 399.617,122.457 399.746,122.615 399.904 C 122.773 400.062,123.017 400.191,123.158 400.191 C 123.299 400.191,123.736 400.364,124.129 400.574 C 124.522 400.785,124.979 400.957,125.145 400.957 C 125.310 400.957,125.575 401.087,125.733 401.245 C 125.891 401.403,126.219 401.532,126.462 401.532 C 126.705 401.532,127.011 401.661,127.142 401.819 C 127.273 401.977,127.575 402.106,127.812 402.106 C 128.050 402.106,128.351 402.236,128.483 402.393 C 128.614 402.551,128.909 402.681,129.140 402.681 C 129.370 402.681,129.725 402.807,129.930 402.962 C 130.134 403.116,130.476 403.246,130.690 403.249 C 130.903 403.252,131.248 403.373,131.456 403.518 C 131.663 403.662,132.135 403.846,132.504 403.925 C 132.872 404.005,133.344 404.188,133.551 404.333 C 133.759 404.477,134.158 404.596,134.438 404.596 C 134.717 404.596,135.053 404.725,135.184 404.883 C 135.315 405.041,135.649 405.173,135.926 405.176 C 136.203 405.179,136.596 405.309,136.801 405.463 C 137.005 405.618,137.404 405.744,137.687 405.744 C 137.970 405.744,138.308 405.874,138.439 406.032 C 138.571 406.190,138.947 406.322,139.277 406.326 C 139.606 406.329,140.091 406.456,140.354 406.606 C 140.618 406.757,141.048 406.886,141.312 406.893 C 141.575 406.900,142.135 407.073,142.556 407.276 C 142.978 407.480,143.538 407.652,143.801 407.659 C 144.064 407.666,144.447 407.798,144.651 407.952 C 144.856 408.107,145.330 408.236,145.704 408.240 C 146.079 408.243,146.553 408.372,146.758 408.527 C 146.962 408.682,147.484 408.808,147.918 408.808 C 148.351 408.808,148.873 408.935,149.078 409.089 C 149.282 409.244,149.794 409.374,150.215 409.378 C 150.637 409.382,151.210 409.504,151.491 409.651 C 151.771 409.797,152.460 409.978,153.022 410.054 C 153.585 410.129,154.135 410.264,154.245 410.352 C 154.355 410.440,155.044 410.571,155.777 410.643 C 156.509 410.715,157.213 410.857,157.341 410.958 C 157.469 411.058,158.115 411.184,158.777 411.236 C 159.439 411.289,160.252 411.453,160.584 411.602 C 160.916 411.750,161.616 411.872,162.140 411.872 C 162.664 411.872,163.458 412.001,163.906 412.159 C 164.354 412.317,165.303 412.446,166.015 412.446 C 166.726 412.446,167.728 412.570,168.240 412.721 C 169.210 413.007,171.943 413.287,176.831 413.601 C 178.411 413.703,181.168 413.881,182.958 413.997 C 184.749 414.113,187.140 414.254,188.272 414.309 C 190.701 414.428,190.629 414.248,189.297 416.882 C 185.455 424.474,181.116 428.224,170.608 433.032 C 167.708 434.359,166.612 436.934,168.331 438.380 C 169.254 439.157,170.113 439.265,173.566 439.039 C 189.332 438.008,201.373 432.732,213.021 421.750 C 214.495 420.360,216.563 418.452,217.616 417.510 C 218.669 416.568,219.703 415.637,219.914 415.441 C 221.774 413.714,227.433 409.638,228.243 409.441 C 228.506 409.378,228.892 409.209,229.100 409.067 C 229.307 408.924,229.867 408.805,230.344 408.802 C 230.821 408.799,231.378 408.669,231.583 408.515 C 231.787 408.360,232.223 408.234,232.551 408.234 C 232.880 408.234,233.316 408.107,233.520 407.952 C 233.725 407.798,234.107 407.668,234.371 407.664 C 234.634 407.660,235.098 407.527,235.401 407.369 C 235.705 407.211,236.308 407.026,236.741 406.959 C 237.175 406.892,237.700 406.720,237.908 406.578 C 238.115 406.435,238.546 406.316,238.865 406.313 C 239.184 406.309,239.612 406.180,239.816 406.026 C 240.021 405.871,240.420 405.744,240.702 405.744 C 240.985 405.744,241.324 405.615,241.455 405.457 C 241.586 405.299,241.922 405.170,242.202 405.170 C 242.482 405.170,242.880 405.053,243.088 404.910 C 243.296 404.767,243.789 404.591,244.184 404.518 C 244.579 404.446,244.902 404.304,244.902 404.204 C 244.902 404.103,245.097 404.021,245.336 404.021 C 245.574 404.021,246.091 403.849,246.484 403.638 C 246.877 403.427,247.403 403.255,247.654 403.255 C 247.905 403.255,248.217 403.126,248.348 402.968 C 248.480 402.810,248.781 402.681,249.019 402.681 C 249.256 402.681,249.558 402.551,249.689 402.393 C 249.820 402.236,250.097 402.106,250.305 402.106 C 250.513 402.106,250.912 401.992,251.191 401.852 C 251.471 401.713,251.986 401.454,252.337 401.278 C 252.688 401.102,253.130 400.957,253.319 400.957 C 253.508 400.957,253.763 400.837,253.885 400.690 C 254.007 400.543,254.396 400.369,254.751 400.302 C 255.105 400.236,255.500 400.054,255.629 399.899 C 255.758 399.744,256.059 399.617,256.298 399.617 C 256.537 399.617,256.782 399.488,256.843 399.330 C 256.903 399.172,257.161 399.043,257.414 399.043 C 257.668 399.043,257.983 398.913,258.114 398.755 C 258.245 398.597,258.504 398.468,258.688 398.468 C 258.873 398.468,259.132 398.339,259.263 398.181 C 259.394 398.023,259.624 397.894,259.773 397.894 C 259.923 397.894,260.604 397.592,261.286 397.224 C 261.969 396.855,262.644 396.553,262.787 396.553 C 262.929 396.553,263.153 396.424,263.284 396.266 C 263.415 396.108,263.687 395.979,263.888 395.979 C 264.089 395.979,264.303 395.850,264.363 395.692 C 264.424 395.534,264.632 395.404,264.825 395.404 C 265.018 395.404,265.226 395.324,265.287 395.225 C 265.348 395.126,265.892 394.813,266.495 394.529 C 267.098 394.245,267.635 393.959,267.688 393.893 C 267.741 393.827,268.281 393.526,268.889 393.224 C 269.497 392.921,270.040 392.599,270.097 392.507 C 270.153 392.416,270.367 392.341,270.571 392.341 C 270.776 392.341,270.943 392.250,270.943 392.139 C 270.943 392.029,271.202 391.848,271.517 391.738 C 271.833 391.628,272.092 391.460,272.092 391.365 C 272.092 391.270,272.245 391.192,272.432 391.192 C 272.620 391.192,272.920 391.020,273.101 390.809 C 273.281 390.598,273.551 390.426,273.702 390.426 C 273.852 390.426,274.004 390.361,274.039 390.282 C 274.152 390.028,275.323 389.277,275.606 389.277 C 275.757 389.277,275.930 389.148,275.991 388.990 C 276.051 388.832,276.279 388.703,276.496 388.703 C 276.713 388.703,276.938 388.581,276.994 388.433 C 277.051 388.284,277.307 388.110,277.563 388.046 C 277.819 387.982,278.028 387.845,278.028 387.742 C 278.028 387.638,278.117 387.554,278.227 387.554 C 278.398 387.554,279.463 386.885,279.751 386.596 C 280.040 386.308,281.104 385.639,281.275 385.639 C 281.385 385.639,281.474 385.551,281.474 385.443 C 281.474 385.335,281.668 385.159,281.905 385.052 C 282.595 384.740,283.240 384.347,283.367 384.162 C 283.432 384.068,283.830 383.783,284.251 383.529 C 285.069 383.035,285.325 382.847,285.840 382.367 C 286.762 381.505,286.663 381.333,289.461 388.703 C 289.721 389.387,290.050 390.208,290.192 390.527 C 290.335 390.845,290.722 391.793,291.054 392.633 C 293.217 398.107,298.712 407.896,302.392 412.829 C 315.222 430.029,330.693 438.168,352.197 439.034 C 367.264 439.640,377.835 435.353,384.700 425.853 C 391.436 416.530,392.031 404.743,386.234 395.457 C 383.968 391.827,381.750 391.826,379.287 395.454 C 375.359 401.238,370.524 403.358,361.321 403.332 C 354.233 403.312,349.249 402.416,343.014 400.042 C 333.369 396.370,323.372 384.584,317.803 370.321 C 313.283 358.745,313.031 357.637,314.546 356.029 C 315.946 354.543,316.425 353.991,317.353 352.800 C 317.763 352.274,318.199 351.757,318.323 351.652 C 318.446 351.546,318.902 350.977,319.336 350.386 C 319.770 349.796,320.562 348.813,321.097 348.202 C 321.631 347.592,322.068 347.034,322.068 346.963 C 322.068 346.829,325.644 341.944,326.170 341.360 C 326.336 341.175,326.472 340.973,326.472 340.911 C 326.472 340.849,326.623 340.600,326.807 340.359 C 327.181 339.870,327.098 339.990,329.010 337.133 C 329.773 335.994,330.491 334.896,330.606 334.693 C 330.720 334.491,330.937 334.174,331.087 333.989 C 331.236 333.804,331.524 333.351,331.725 332.982 C 331.927 332.614,332.143 332.269,332.206 332.216 C 332.269 332.164,332.427 331.905,332.557 331.642 C 332.688 331.379,332.962 330.905,333.167 330.589 C 333.830 329.563,334.112 329.067,334.334 328.530 C 334.454 328.241,334.617 328.004,334.698 328.004 C 334.778 328.004,335.049 327.573,335.299 327.046 C 335.549 326.520,335.812 326.089,335.884 326.089 C 335.957 326.089,336.072 325.831,336.142 325.515 C 336.211 325.199,336.339 324.940,336.425 324.940 C 336.512 324.940,336.676 324.703,336.790 324.414 C 336.904 324.124,337.079 323.758,337.178 323.600 C 337.277 323.442,337.408 323.183,337.469 323.025 C 337.529 322.867,337.882 322.221,338.253 321.589 C 338.624 320.957,339.020 320.203,339.133 319.914 C 339.246 319.624,339.416 319.387,339.511 319.387 C 339.606 319.387,339.684 319.296,339.684 319.184 C 339.684 319.005,340.369 317.508,340.818 316.707 C 340.907 316.549,341.299 315.730,341.690 314.888 C 342.080 314.045,342.651 312.859,342.957 312.252 C 343.263 311.645,343.514 311.031,343.514 310.887 C 343.514 310.744,343.643 310.519,343.801 310.388 C 343.959 310.257,344.088 309.955,344.088 309.718 C 344.088 309.480,344.217 309.178,344.375 309.047 C 344.533 308.916,344.663 308.623,344.663 308.396 C 344.663 308.169,344.779 307.814,344.921 307.606 C 345.063 307.398,345.237 306.991,345.308 306.702 C 345.378 306.412,345.520 306.175,345.624 306.175 C 345.727 306.175,345.812 305.981,345.813 305.744 C 345.813 305.507,345.985 305.055,346.194 304.739 C 346.404 304.423,346.575 303.981,346.576 303.757 C 346.577 303.533,346.707 303.243,346.865 303.112 C 347.022 302.980,347.154 302.690,347.158 302.466 C 347.161 302.242,347.290 301.891,347.445 301.687 C 347.600 301.482,347.726 301.084,347.726 300.801 C 347.726 300.518,347.855 300.179,348.013 300.048 C 348.171 299.917,348.303 299.583,348.307 299.306 C 348.310 299.030,348.439 298.636,348.594 298.432 C 348.749 298.227,348.878 297.926,348.882 297.761 C 348.885 297.597,349.055 297.118,349.258 296.697 C 349.461 296.276,349.631 295.833,349.634 295.714 C 349.638 295.594,349.770 295.249,349.927 294.948 C 350.084 294.646,350.217 294.227,350.221 294.016 C 350.225 293.806,350.352 293.418,350.503 293.155 C 350.653 292.891,350.779 292.455,350.783 292.186 C 350.787 291.916,350.916 291.529,351.071 291.324 C 351.226 291.120,351.355 290.689,351.358 290.367 C 351.362 290.045,351.491 289.614,351.645 289.410 C 351.800 289.205,351.929 288.847,351.933 288.613 C 351.936 288.380,352.059 287.906,352.205 287.560 C 352.626 286.569,353.285 284.292,353.282 283.842 C 353.280 283.617,353.408 283.186,353.565 282.885 C 353.722 282.583,353.855 282.078,353.859 281.762 C 353.864 281.446,353.990 280.972,354.141 280.708 C 354.291 280.445,354.417 279.924,354.421 279.550 C 354.425 279.176,354.531 278.767,354.657 278.641 C 354.783 278.515,354.945 277.959,355.017 277.406 C 355.088 276.853,355.238 276.142,355.348 275.826 C 355.565 275.209,355.863 273.839,356.181 271.996 C 356.291 271.364,356.459 270.695,356.556 270.510 C 356.653 270.324,356.783 269.635,356.846 268.978 C 356.908 268.321,357.079 267.414,357.225 266.963 C 357.372 266.512,357.492 265.682,357.492 265.118 C 357.492 264.555,357.620 263.847,357.778 263.545 C 357.940 263.234,358.064 262.489,358.065 261.823 C 358.066 261.178,358.195 260.341,358.353 259.963 C 358.523 259.556,358.642 258.666,358.645 257.785 C 358.648 256.965,358.740 255.950,358.851 255.529 C 359.405 253.417,360.460 238.105,360.460 232.169 C 360.460 226.192,359.412 211.046,358.857 209.000 C 358.743 208.578,358.648 207.520,358.645 206.648 C 358.642 205.681,358.528 204.793,358.353 204.374 C 358.195 203.996,358.066 203.176,358.066 202.552 C 358.066 201.928,357.948 201.184,357.803 200.900 C 357.659 200.616,357.499 199.711,357.449 198.889 C 357.398 198.067,357.258 197.296,357.137 197.175 C 357.016 197.054,356.917 196.545,356.917 196.043 C 356.917 195.541,356.797 194.761,356.650 194.310 C 356.504 193.859,356.326 193.018,356.255 192.441 C 356.184 191.865,356.043 191.292,355.941 191.169 C 355.839 191.046,355.707 190.484,355.648 189.920 C 355.589 189.356,355.420 188.623,355.272 188.291 C 355.123 187.959,355.002 187.351,355.002 186.939 C 355.002 186.528,354.876 186.024,354.721 185.819 C 354.567 185.615,354.437 185.141,354.434 184.766 C 354.431 184.391,354.301 183.917,354.147 183.713 C 353.992 183.509,353.862 183.040,353.858 182.671 C 353.854 182.303,353.732 181.772,353.585 181.492 C 353.439 181.212,353.259 180.544,353.186 180.008 C 353.112 179.472,352.981 178.990,352.895 178.937 C 352.809 178.883,352.679 178.488,352.606 178.059 C 352.534 177.630,352.354 177.049,352.208 176.767 C 352.061 176.486,351.938 176.041,351.934 175.778 C 351.930 175.515,351.800 175.132,351.645 174.928 C 351.491 174.723,351.364 174.330,351.364 174.055 C 351.364 173.779,351.238 173.386,351.083 173.182 C 350.929 172.977,350.799 172.565,350.796 172.265 C 350.793 171.965,350.666 171.491,350.514 171.212 C 350.362 170.932,350.186 170.381,350.122 169.986 C 350.059 169.591,349.924 169.268,349.824 169.268 C 349.723 169.268,349.641 169.072,349.641 168.834 C 349.641 168.595,349.469 168.079,349.258 167.686 C 349.047 167.293,348.872 166.820,348.869 166.635 C 348.866 166.451,348.736 166.132,348.582 165.928 C 348.427 165.724,348.301 165.374,348.301 165.151 C 348.301 164.928,348.174 164.578,348.019 164.374 C 347.865 164.169,347.736 163.776,347.732 163.499 C 347.729 163.222,347.597 162.888,347.439 162.757 C 347.281 162.626,347.152 162.282,347.152 161.991 C 347.152 161.701,347.022 161.357,346.865 161.225 C 346.707 161.094,346.577 160.856,346.577 160.696 C 346.577 160.424,346.103 159.295,345.500 158.132 C 345.356 157.853,345.237 157.497,345.237 157.342 C 345.237 157.187,345.108 156.953,344.950 156.821 C 344.792 156.690,344.663 156.413,344.663 156.205 C 344.663 155.997,344.546 155.599,344.404 155.319 C 344.262 155.040,343.994 154.466,343.809 154.045 C 343.623 153.624,343.394 153.150,343.300 152.992 C 343.205 152.834,343.079 152.575,343.018 152.417 C 342.958 152.259,342.614 151.519,342.254 150.772 C 341.893 150.026,341.599 149.325,341.599 149.216 C 341.599 149.107,341.470 148.910,341.312 148.779 C 341.154 148.648,341.024 148.385,341.024 148.195 C 341.024 148.005,340.895 147.720,340.737 147.562 C 340.579 147.404,340.450 147.184,340.450 147.072 C 340.450 146.961,340.004 146.029,339.458 145.000 C 338.913 143.972,338.311 142.834,338.120 142.472 C 337.930 142.110,337.687 141.727,337.580 141.620 C 337.474 141.514,337.386 141.279,337.386 141.098 C 337.386 140.917,337.314 140.740,337.225 140.705 C 337.056 140.639,336.907 140.382,335.950 138.510 C 335.634 137.892,335.311 137.358,335.232 137.322 C 335.153 137.287,335.089 137.150,335.089 137.017 C 335.089 136.884,334.916 136.620,334.706 136.429 C 334.495 136.238,334.323 135.928,334.323 135.740 C 334.323 135.552,334.247 135.352,334.155 135.295 C 334.063 135.238,333.309 134.064,332.480 132.685 C 330.687 129.706,330.663 129.667,329.440 127.898 C 328.913 127.137,328.396 126.375,328.291 126.206 C 328.186 126.037,327.863 125.585,327.573 125.201 C 327.283 124.816,327.046 124.445,327.046 124.375 C 327.046 124.267,326.088 122.908,325.552 122.257 C 325.465 122.151,325.313 121.925,325.215 121.756 C 325.116 121.588,324.804 121.158,324.520 120.801 C 324.046 120.206,322.563 118.176,321.876 117.182 C 321.719 116.954,321.429 116.581,321.233 116.354 C 320.876 115.940,319.613 114.391,319.336 114.028 C 319.255 113.921,318.971 113.576,318.705 113.260 C 318.439 112.944,318.032 112.438,317.799 112.135 C 317.567 111.832,317.226 111.422,317.042 111.225 C 316.857 111.028,316.707 110.799,316.707 110.718 C 316.707 110.636,316.556 110.435,316.371 110.271 C 315.919 109.869,313.890 107.623,311.728 105.133 C 309.698 102.793,302.582 95.805,298.912 92.546 C 298.340 92.038,297.679 91.450,297.441 91.240 C 297.204 91.029,296.691 90.598,296.301 90.282 C 295.910 89.966,295.495 89.620,295.378 89.513 C 295.261 89.405,294.740 88.974,294.220 88.555 C 293.701 88.136,293.093 87.621,292.870 87.410 C 292.260 86.835,291.609 86.323,290.709 85.709 C 290.264 85.405,289.899 85.082,289.899 84.991 C 289.899 84.900,289.812 84.825,289.705 84.825 C 289.599 84.825,288.443 84.007,287.138 83.006 C 285.832 82.006,284.679 81.187,284.576 81.187 C 284.472 81.187,284.338 81.058,284.277 80.900 C 284.217 80.742,284.049 80.613,283.904 80.613 C 283.759 80.613,283.484 80.440,283.293 80.230 C 283.103 80.019,282.870 79.847,282.777 79.847 C 282.684 79.847,282.503 79.759,282.376 79.653 C 281.762 79.137,280.334 78.124,280.221 78.124 C 280.151 78.124,279.767 77.865,279.368 77.549 C 278.969 77.233,278.558 76.975,278.454 76.975 C 278.351 76.975,278.151 76.836,278.011 76.667 C 277.871 76.499,277.580 76.282,277.365 76.186 C 277.151 76.090,276.716 75.842,276.400 75.634 C 276.084 75.427,275.653 75.166,275.443 75.054 C 274.945 74.791,274.488 74.509,273.432 73.815 C 272.234 73.027,271.867 72.807,271.392 72.591 C 271.166 72.487,270.924 72.311,270.855 72.199 C 270.785 72.088,270.571 71.996,270.378 71.996 C 270.185 71.996,269.977 71.867,269.916 71.709 C 269.856 71.551,269.642 71.422,269.441 71.422 C 269.240 71.422,268.968 71.292,268.837 71.135 C 268.706 70.977,268.472 70.847,268.317 70.847 C 268.162 70.847,267.816 70.675,267.549 70.464 C 267.281 70.254,266.944 70.081,266.800 70.081 C 266.657 70.081,266.539 70.013,266.539 69.930 C 266.539 69.846,266.026 69.542,265.398 69.255 C 264.771 68.967,264.206 68.647,264.142 68.544 C 264.079 68.442,263.870 68.358,263.679 68.358 C 263.487 68.358,263.223 68.229,263.092 68.071 C 262.961 67.913,262.703 67.784,262.518 67.784 C 262.333 67.784,262.075 67.654,261.944 67.496 C 261.812 67.338,261.550 67.209,261.359 67.209 C 261.169 67.209,260.896 67.091,260.752 66.947 C 260.607 66.803,260.278 66.619,260.020 66.538 C 259.761 66.458,259.380 66.274,259.172 66.130 C 258.965 65.986,258.678 65.869,258.536 65.869 C 258.394 65.869,258.149 65.740,257.991 65.582 C 257.833 65.424,257.548 65.294,257.358 65.294 C 257.168 65.294,256.905 65.165,256.774 65.007 C 256.642 64.849,256.330 64.720,256.080 64.720 C 255.830 64.720,255.625 64.635,255.625 64.532 C 255.625 64.429,255.388 64.288,255.098 64.219 C 254.809 64.150,254.356 63.987,254.093 63.856 C 252.761 63.195,251.820 62.805,251.558 62.805 C 251.398 62.805,251.160 62.676,251.029 62.518 C 250.898 62.360,250.636 62.231,250.447 62.231 C 250.258 62.231,249.816 62.087,249.465 61.910 C 249.114 61.734,248.598 61.476,248.319 61.336 C 248.039 61.196,247.598 61.082,247.337 61.082 C 247.077 61.082,246.756 60.953,246.625 60.795 C 246.494 60.637,246.155 60.507,245.872 60.507 C 245.589 60.507,245.191 60.381,244.986 60.226 C 244.782 60.072,244.440 59.942,244.226 59.939 C 244.013 59.936,243.668 59.815,243.461 59.670 C 243.253 59.526,242.781 59.342,242.413 59.263 C 242.044 59.183,241.572 59.000,241.365 58.855 C 241.157 58.711,240.758 58.593,240.479 58.593 C 240.199 58.593,239.863 58.463,239.732 58.305 C 239.601 58.147,239.181 58.015,238.799 58.012 C 238.417 58.009,237.937 57.880,237.733 57.725 C 237.528 57.570,237.092 57.444,236.764 57.444 C 236.436 57.444,236.000 57.317,235.795 57.163 C 235.591 57.008,235.208 56.878,234.945 56.874 C 234.682 56.870,234.236 56.747,233.955 56.600 C 233.674 56.454,233.086 56.273,232.647 56.199 C 232.209 56.125,231.620 55.944,231.339 55.798 C 231.058 55.651,230.483 55.528,230.062 55.524 C 229.641 55.520,229.129 55.390,228.925 55.236 C 228.720 55.081,228.198 54.955,227.764 54.955 C 227.331 54.955,226.809 54.828,226.604 54.673 C 226.400 54.519,225.888 54.386,225.467 54.379 C 225.045 54.372,224.485 54.243,224.222 54.093 C 223.959 53.942,223.380 53.816,222.936 53.812 C 222.492 53.809,221.760 53.685,221.309 53.538 C 220.857 53.391,219.929 53.212,219.246 53.141 C 218.562 53.069,217.904 52.928,217.784 52.828 C 217.663 52.728,216.973 52.596,216.250 52.535 C 215.527 52.474,214.566 52.303,214.115 52.157 C 213.664 52.011,212.662 51.891,211.888 51.891 C 211.072 51.891,210.194 51.770,209.795 51.604 C 209.375 51.428,208.491 51.315,207.522 51.313 C 206.649 51.311,205.333 51.182,204.596 51.026 C 203.858 50.870,202.492 50.742,201.559 50.742 C 200.626 50.742,197.826 50.593,195.336 50.410 C 189.744 50.001,188.554 50.002,182.651 50.425 C 180.059 50.611,177.447 50.737,176.846 50.704 L 175.752 50.646 177.111 48.923 C 188.821 34.076,181.389 15.244,161.896 10.367 C 157.533 9.276,148.402 8.414,144.567 8.732 M147.670 27.887 C 153.145 29.423,152.115 37.249,146.040 40.274 C 140.220 43.171,140.918 49.651,147.537 54.163 C 149.204 55.300,149.243 55.447,147.911 55.585 C 147.321 55.646,146.736 55.780,146.612 55.882 C 146.488 55.985,146.049 56.132,145.638 56.209 C 145.226 56.286,144.666 56.465,144.393 56.608 C 144.120 56.750,143.638 56.870,143.322 56.874 C 143.006 56.878,142.580 57.008,142.376 57.163 C 142.172 57.317,141.741 57.446,141.419 57.450 C 141.097 57.453,140.666 57.582,140.461 57.737 C 140.257 57.892,139.821 58.018,139.493 58.018 C 139.164 58.018,138.728 58.145,138.524 58.299 C 138.319 58.454,137.921 58.583,137.639 58.587 C 137.357 58.590,136.997 58.722,136.839 58.880 C 136.681 59.038,136.395 59.170,136.203 59.174 C 136.011 59.177,135.510 59.347,135.089 59.550 C 134.667 59.754,134.150 59.926,133.940 59.933 C 133.729 59.939,133.389 60.072,133.185 60.226 C 132.981 60.381,132.636 60.510,132.419 60.514 C 132.202 60.517,131.858 60.646,131.653 60.801 C 131.449 60.955,131.050 61.082,130.767 61.082 C 130.484 61.082,130.145 61.211,130.014 61.369 C 129.883 61.527,129.582 61.656,129.344 61.656 C 129.107 61.656,128.805 61.786,128.674 61.944 C 128.543 62.101,128.266 62.231,128.058 62.231 C 127.850 62.231,127.451 62.349,127.172 62.494 C 126.009 63.097,124.880 63.571,124.608 63.571 C 124.448 63.571,124.210 63.700,124.079 63.858 C 123.947 64.016,123.646 64.146,123.408 64.146 C 123.171 64.146,122.869 64.275,122.738 64.433 C 122.607 64.591,122.354 64.720,122.177 64.720 C 121.999 64.720,121.687 64.846,121.482 65.001 C 121.278 65.156,120.970 65.285,120.799 65.288 C 120.628 65.292,120.380 65.424,120.249 65.582 C 120.118 65.740,119.855 65.869,119.665 65.869 C 119.475 65.869,119.190 65.998,119.032 66.156 C 118.874 66.314,118.631 66.444,118.491 66.445 C 118.352 66.445,117.980 66.617,117.664 66.826 C 117.348 67.035,116.948 67.207,116.775 67.208 C 116.602 67.209,116.411 67.338,116.350 67.496 C 116.289 67.654,116.032 67.784,115.779 67.784 C 115.525 67.784,115.210 67.913,115.079 68.071 C 114.948 68.229,114.689 68.358,114.505 68.358 C 114.320 68.358,114.061 68.487,113.930 68.645 C 113.799 68.803,113.579 68.933,113.442 68.933 C 113.304 68.933,113.078 69.040,112.939 69.172 C 112.799 69.304,112.188 69.660,111.580 69.963 C 110.973 70.266,110.429 70.589,110.372 70.681 C 110.316 70.772,110.111 70.847,109.918 70.847 C 109.725 70.847,109.517 70.977,109.457 71.135 C 109.396 71.292,109.182 71.422,108.981 71.422 C 108.780 71.422,108.515 71.543,108.393 71.690 C 108.270 71.838,107.958 72.012,107.699 72.077 C 107.440 72.142,107.228 72.279,107.228 72.383 C 107.228 72.486,107.105 72.571,106.955 72.571 C 106.804 72.571,106.547 72.705,106.382 72.870 C 105.312 73.940,105.652 69.416,106.952 65.294 C 107.711 62.885,108.820 59.580,109.039 59.071 C 111.641 53.041,113.010 50.495,116.089 45.955 C 120.629 39.262,127.444 32.905,132.887 30.288 C 137.561 28.039,144.308 26.943,147.670 27.887 M196.170 58.499 C 197.645 58.651,199.885 58.779,201.149 58.783 C 202.474 58.787,203.933 58.908,204.596 59.067 C 205.227 59.220,206.401 59.348,207.204 59.352 C 208.007 59.355,209.030 59.488,209.478 59.646 C 209.926 59.804,210.906 59.937,211.656 59.941 C 212.407 59.946,213.365 60.074,213.787 60.226 C 214.208 60.377,214.917 60.503,215.362 60.505 C 215.808 60.506,216.497 60.630,216.894 60.779 C 217.291 60.929,218.175 61.108,218.859 61.177 C 219.542 61.246,220.204 61.388,220.330 61.492 C 220.455 61.596,221.059 61.731,221.672 61.791 C 222.285 61.851,223.019 62.018,223.303 62.161 C 223.587 62.305,224.153 62.422,224.559 62.422 C 224.965 62.422,225.465 62.549,225.669 62.703 C 225.874 62.858,226.429 62.990,226.903 62.997 C 227.377 63.003,227.932 63.135,228.136 63.290 C 228.341 63.445,228.820 63.571,229.201 63.571 C 229.582 63.571,230.061 63.698,230.265 63.852 C 230.469 64.007,230.878 64.136,231.173 64.139 C 231.468 64.143,231.944 64.267,232.232 64.416 C 232.521 64.565,233.098 64.750,233.515 64.826 C 233.933 64.903,234.445 65.083,234.652 65.226 C 234.860 65.369,235.291 65.489,235.610 65.492 C 235.929 65.495,236.357 65.625,236.561 65.779 C 236.766 65.934,237.207 66.060,237.543 66.060 C 237.879 66.060,238.260 66.190,238.392 66.348 C 238.523 66.506,238.867 66.635,239.157 66.635 C 239.448 66.635,239.792 66.764,239.923 66.922 C 240.055 67.080,240.345 67.210,240.569 67.210 C 240.793 67.211,241.208 67.332,241.490 67.480 C 241.773 67.627,242.274 67.807,242.604 67.879 C 242.934 67.952,243.436 68.132,243.718 68.279 C 244.001 68.427,244.361 68.550,244.519 68.554 C 244.677 68.558,244.973 68.688,245.178 68.843 C 245.382 68.997,245.738 69.124,245.968 69.124 C 246.198 69.124,246.494 69.253,246.625 69.411 C 246.756 69.569,247.058 69.698,247.295 69.698 C 247.533 69.698,247.834 69.828,247.966 69.986 C 248.097 70.144,248.398 70.273,248.636 70.273 C 248.873 70.273,249.175 70.402,249.306 70.560 C 249.437 70.718,249.686 70.847,249.859 70.847 C 250.032 70.847,250.495 71.020,250.888 71.230 C 251.281 71.441,251.738 71.613,251.904 71.613 C 252.070 71.613,252.335 71.742,252.493 71.900 C 252.651 72.058,252.935 72.188,253.126 72.188 C 253.316 72.188,253.579 72.317,253.710 72.475 C 253.841 72.633,254.100 72.762,254.284 72.762 C 254.469 72.762,254.728 72.891,254.859 73.049 C 254.990 73.207,255.305 73.337,255.558 73.337 C 255.812 73.337,256.069 73.466,256.130 73.624 C 256.191 73.782,256.436 73.911,256.675 73.911 C 256.914 73.911,257.210 74.032,257.332 74.179 C 257.455 74.327,257.777 74.504,258.049 74.572 C 258.321 74.640,258.668 74.821,258.821 74.974 C 258.974 75.126,259.254 75.251,259.445 75.251 C 259.635 75.251,259.898 75.381,260.029 75.539 C 260.160 75.697,260.420 75.826,260.606 75.826 C 260.793 75.826,260.995 75.955,261.055 76.113 C 261.116 76.271,261.330 76.400,261.531 76.400 C 261.732 76.400,262.004 76.529,262.135 76.687 C 262.266 76.845,262.525 76.975,262.709 76.975 C 262.894 76.975,263.153 77.104,263.284 77.262 C 263.415 77.420,263.635 77.549,263.772 77.549 C 263.910 77.549,264.136 77.657,264.275 77.789 C 264.415 77.921,265.002 78.272,265.582 78.570 C 266.161 78.868,266.893 79.275,267.209 79.476 C 267.525 79.677,267.956 79.930,268.167 80.038 C 268.377 80.147,268.808 80.405,269.124 80.613 C 269.440 80.820,269.884 81.072,270.111 81.173 C 270.337 81.273,270.583 81.452,270.656 81.570 C 270.729 81.688,270.974 81.867,271.201 81.968 C 271.428 82.068,271.872 82.320,272.188 82.528 C 272.504 82.736,272.891 82.966,273.049 83.039 C 273.490 83.243,274.478 83.946,274.549 84.107 C 274.584 84.186,274.696 84.251,274.796 84.251 C 274.996 84.251,276.136 85.013,276.326 85.273 C 276.468 85.467,277.229 85.922,277.693 86.089 C 277.877 86.156,278.028 86.289,278.028 86.384 C 278.028 86.480,278.243 86.640,278.506 86.740 C 278.770 86.840,278.985 87.010,278.985 87.118 C 278.985 87.226,279.079 87.315,279.194 87.315 C 279.309 87.315,279.601 87.465,279.842 87.650 C 280.084 87.834,280.474 88.114,280.710 88.272 C 280.945 88.430,281.236 88.645,281.354 88.751 C 281.473 88.856,281.893 89.158,282.287 89.421 C 282.681 89.684,283.004 89.966,283.005 90.048 C 283.006 90.129,283.222 90.278,283.485 90.378 C 283.748 90.478,283.964 90.648,283.964 90.756 C 283.964 90.864,284.071 90.955,284.203 90.957 C 284.335 90.959,284.756 91.240,285.139 91.579 C 285.522 91.919,286.025 92.326,286.256 92.484 C 286.488 92.642,286.873 92.944,287.112 93.155 C 287.520 93.515,288.352 94.209,289.894 95.479 C 290.260 95.780,290.698 96.156,290.868 96.314 C 291.038 96.472,291.596 96.946,292.108 97.367 C 292.620 97.788,293.357 98.435,293.746 98.803 C 294.134 99.172,295.081 100.034,295.850 100.718 C 297.736 102.398,304.461 109.134,305.888 110.773 C 306.520 111.499,307.166 112.231,307.324 112.400 C 308.353 113.503,310.362 115.814,311.027 116.660 C 311.460 117.212,311.862 117.707,311.919 117.760 C 311.977 117.812,312.494 118.459,313.067 119.196 C 313.640 119.933,314.521 121.006,315.025 121.580 C 315.529 122.154,315.941 122.716,315.941 122.829 C 315.941 122.943,316.178 123.298,316.467 123.619 C 316.757 123.940,317.209 124.507,317.472 124.879 C 317.736 125.251,318.145 125.804,318.381 126.109 C 319.307 127.302,320.099 128.420,320.537 129.153 C 320.789 129.574,321.042 129.962,321.100 130.014 C 321.306 130.201,322.068 131.341,322.068 131.463 C 322.068 131.531,322.326 131.913,322.642 132.312 C 322.958 132.711,323.217 133.099,323.217 133.174 C 323.217 133.249,323.463 133.624,323.763 134.008 C 324.064 134.392,324.516 135.093,324.768 135.567 C 325.021 136.040,325.270 136.471,325.323 136.524 C 325.600 136.803,326.281 137.874,326.281 138.032 C 326.281 138.184,326.960 139.299,327.813 140.546 C 328.063 140.911,328.887 142.382,329.261 143.131 C 329.419 143.447,329.717 143.964,329.923 144.280 C 330.129 144.596,330.348 144.983,330.409 145.141 C 330.470 145.299,330.602 145.558,330.702 145.716 C 330.802 145.874,331.010 146.277,331.164 146.612 C 331.318 146.947,331.532 147.275,331.639 147.341 C 331.746 147.408,331.833 147.618,331.833 147.810 C 331.833 148.001,331.963 148.265,332.121 148.396 C 332.279 148.527,332.408 148.786,332.408 148.971 C 332.408 149.156,332.537 149.414,332.695 149.545 C 332.853 149.676,332.982 149.935,332.982 150.120 C 332.982 150.305,333.112 150.563,333.270 150.694 C 333.427 150.825,333.557 151.088,333.557 151.278 C 333.557 151.469,333.686 151.753,333.844 151.911 C 334.002 152.069,334.131 152.289,334.131 152.399 C 334.131 152.509,334.433 153.158,334.801 153.841 C 335.170 154.523,335.472 155.178,335.472 155.295 C 335.472 155.412,335.601 155.638,335.759 155.796 C 335.917 155.954,336.046 156.239,336.046 156.429 C 336.046 156.619,336.175 156.882,336.333 157.013 C 336.491 157.144,336.620 157.421,336.620 157.629 C 336.620 157.837,336.737 158.236,336.879 158.515 C 337.021 158.795,337.267 159.325,337.426 159.694 C 337.585 160.062,337.899 160.761,338.125 161.246 C 338.351 161.732,338.535 162.233,338.535 162.361 C 338.535 162.489,338.664 162.722,338.822 162.880 C 338.980 163.038,339.110 163.366,339.110 163.609 C 339.110 163.852,339.239 164.158,339.397 164.289 C 339.555 164.420,339.684 164.716,339.684 164.946 C 339.684 165.176,339.811 165.532,339.965 165.736 C 340.120 165.941,340.249 166.283,340.252 166.496 C 340.256 166.710,340.381 167.059,340.530 167.272 C 340.679 167.485,340.861 167.979,340.935 168.370 C 341.008 168.761,341.144 169.128,341.238 169.185 C 341.331 169.243,341.407 169.437,341.407 169.617 C 341.407 169.796,341.580 170.265,341.790 170.658 C 342.001 171.051,342.173 171.529,342.173 171.720 C 342.173 171.910,342.300 172.234,342.454 172.438 C 342.609 172.643,342.741 173.068,342.748 173.384 C 342.754 173.700,342.886 174.126,343.041 174.331 C 343.196 174.535,343.322 174.928,343.322 175.203 C 343.322 175.479,343.449 175.872,343.603 176.076 C 343.758 176.281,343.888 176.663,343.892 176.927 C 343.896 177.190,344.016 177.629,344.158 177.902 C 344.301 178.175,344.476 178.710,344.547 179.091 C 344.618 179.471,344.802 180.023,344.956 180.317 C 345.109 180.611,345.235 181.079,345.236 181.357 C 345.236 181.634,345.366 182.108,345.523 182.410 C 345.680 182.712,345.810 183.222,345.810 183.544 C 345.811 183.866,345.938 184.297,346.093 184.501 C 346.247 184.706,346.376 185.223,346.380 185.650 C 346.383 186.078,346.512 186.595,346.667 186.799 C 346.822 187.004,346.951 187.459,346.954 187.812 C 346.958 188.165,347.081 188.725,347.229 189.057 C 347.377 189.389,347.547 190.122,347.606 190.686 C 347.665 191.250,347.797 191.812,347.899 191.935 C 348.001 192.058,348.140 192.631,348.208 193.207 C 348.276 193.784,348.454 194.580,348.604 194.978 C 348.753 195.375,348.875 196.032,348.875 196.438 C 348.875 196.844,349.004 197.486,349.162 197.864 C 349.320 198.242,349.449 199.018,349.449 199.588 C 349.449 200.157,349.579 200.933,349.737 201.311 C 349.895 201.689,350.028 202.496,350.032 203.105 C 350.037 203.714,350.165 204.557,350.317 204.978 C 350.468 205.400,350.594 206.397,350.595 207.194 C 350.597 207.991,350.719 209.068,350.866 209.587 C 351.013 210.106,351.184 211.479,351.246 212.638 C 351.308 213.796,351.442 215.045,351.543 215.414 C 351.715 216.038,351.927 219.651,352.314 228.530 C 352.401 230.531,352.400 233.849,352.311 235.902 C 351.943 244.439,351.711 248.149,351.449 249.666 C 351.297 250.549,351.172 251.841,351.171 252.538 C 351.170 253.235,351.040 254.229,350.884 254.746 C 350.727 255.263,350.598 256.394,350.598 257.259 C 350.598 258.225,350.487 259.099,350.311 259.520 C 350.153 259.899,350.021 260.749,350.017 261.411 C 350.013 262.090,349.891 262.822,349.737 263.092 C 349.584 263.359,349.460 264.091,349.456 264.744 C 349.453 265.390,349.320 266.227,349.162 266.605 C 349.004 266.983,348.875 267.595,348.875 267.965 C 348.875 268.335,348.752 268.962,348.602 269.359 C 348.452 269.757,348.274 270.575,348.206 271.179 C 348.138 271.783,348.008 272.323,347.918 272.379 C 347.827 272.435,347.697 272.975,347.628 273.579 C 347.559 274.183,347.381 274.948,347.232 275.280 C 347.082 275.612,346.960 276.177,346.960 276.536 C 346.960 276.895,346.834 277.356,346.679 277.560 C 346.525 277.765,346.395 278.282,346.392 278.709 C 346.389 279.137,346.259 279.654,346.105 279.858 C 345.950 280.063,345.818 280.531,345.811 280.900 C 345.804 281.269,345.675 281.786,345.524 282.049 C 345.374 282.312,345.247 282.743,345.243 283.006 C 345.238 283.270,345.109 283.726,344.956 284.020 C 344.802 284.314,344.618 284.866,344.547 285.246 C 344.476 285.627,344.301 286.162,344.158 286.435 C 344.016 286.708,343.896 287.147,343.892 287.410 C 343.888 287.674,343.758 288.056,343.603 288.261 C 343.449 288.465,343.322 288.858,343.322 289.134 C 343.322 289.409,343.196 289.802,343.041 290.006 C 342.886 290.211,342.757 290.642,342.754 290.964 C 342.750 291.286,342.621 291.717,342.467 291.921 C 342.312 292.126,342.183 292.444,342.179 292.629 C 342.176 292.813,342.001 293.286,341.790 293.679 C 341.580 294.072,341.407 294.536,341.407 294.710 C 341.407 294.883,341.279 295.272,341.121 295.574 C 340.964 295.876,340.832 296.252,340.828 296.410 C 340.824 296.568,340.694 296.864,340.540 297.069 C 340.385 297.273,340.256 297.618,340.252 297.835 C 340.249 298.051,340.120 298.396,339.965 298.601 C 339.811 298.805,339.684 299.161,339.684 299.391 C 339.684 299.621,339.555 299.917,339.397 300.048 C 339.239 300.179,339.110 300.456,339.110 300.664 C 339.110 300.872,338.986 301.271,338.836 301.550 C 338.685 301.830,338.373 302.489,338.142 303.016 C 337.911 303.542,337.603 304.202,337.458 304.481 C 337.313 304.761,337.192 305.149,337.189 305.343 C 337.185 305.537,337.056 305.864,336.902 306.068 C 336.747 306.273,336.620 306.585,336.620 306.763 C 336.620 306.940,336.491 307.193,336.333 307.324 C 336.175 307.455,336.046 307.757,336.046 307.994 C 336.046 308.232,335.917 308.533,335.759 308.664 C 335.601 308.796,335.472 309.054,335.472 309.239 C 335.472 309.424,335.342 309.682,335.184 309.813 C 335.026 309.944,334.897 310.178,334.897 310.333 C 334.897 310.488,334.725 310.834,334.514 311.101 C 334.303 311.369,334.131 311.738,334.131 311.922 C 334.131 312.105,334.002 312.363,333.844 312.494 C 333.686 312.625,333.556 312.830,333.556 312.948 C 333.556 313.178,332.359 315.626,332.062 316.003 C 331.965 316.127,331.830 316.465,331.760 316.754 C 331.691 317.044,331.550 317.281,331.447 317.281 C 331.343 317.281,331.259 317.399,331.259 317.542 C 331.259 317.686,331.087 318.023,330.876 318.291 C 330.665 318.558,330.493 318.904,330.493 319.059 C 330.493 319.214,330.364 319.448,330.206 319.579 C 330.048 319.710,329.919 319.979,329.919 320.177 C 329.919 320.374,329.850 320.536,329.767 320.536 C 329.684 320.536,329.377 320.989,329.084 321.541 C 328.792 322.094,328.348 322.891,328.096 323.313 C 327.845 323.734,327.575 324.208,327.497 324.366 C 327.419 324.524,327.243 324.767,327.105 324.906 C 326.967 325.045,326.855 325.282,326.855 325.433 C 326.855 325.583,326.777 325.706,326.682 325.706 C 326.587 325.706,326.415 325.943,326.299 326.233 C 326.183 326.522,325.937 326.989,325.753 327.269 C 325.569 327.549,325.169 328.195,324.863 328.705 C 324.557 329.215,324.061 329.945,323.762 330.329 C 323.462 330.713,323.217 331.109,323.217 331.209 C 323.217 331.370,323.017 331.649,322.263 332.543 C 322.156 332.671,322.068 332.852,322.068 332.947 C 322.068 333.041,321.766 333.514,321.398 333.996 C 321.029 334.479,320.728 334.921,320.728 334.977 C 320.728 335.100,318.827 337.749,318.465 338.131 C 318.326 338.278,318.068 338.622,317.892 338.897 C 317.498 339.512,317.282 339.797,316.850 340.272 C 316.666 340.475,316.515 340.728,316.515 340.833 C 316.515 340.938,316.426 341.024,316.318 341.024 C 316.209 341.024,316.066 341.175,316.001 341.360 C 315.935 341.544,315.573 342.082,315.196 342.556 C 314.819 343.030,314.443 343.504,314.360 343.609 C 314.278 343.715,314.030 344.016,313.810 344.280 C 313.589 344.543,313.021 345.260,312.547 345.872 C 312.073 346.485,311.488 347.200,311.246 347.460 L 310.807 347.934 310.509 347.016 C 310.344 346.512,309.942 345.065,309.615 343.801 C 308.334 338.858,307.548 336.006,306.713 333.270 C 306.392 332.216,305.845 330.364,305.498 329.153 C 301.800 316.249,297.727 306.199,292.573 297.260 C 287.844 289.061,279.310 280.331,273.384 277.632 C 272.586 277.268,272.732 277.027,274.246 276.214 C 289.806 267.852,303.060 254.734,311.686 239.157 C 311.949 238.684,312.490 237.732,312.889 237.043 C 315.732 232.128,319.078 224.113,321.358 216.754 C 326.935 198.753,326.983 175.904,321.480 159.858 C 315.459 142.305,304.897 128.856,289.134 118.672 C 279.451 112.416,267.593 107.271,257.635 105.004 C 251.097 103.516,241.585 101.939,237.051 101.593 C 236.261 101.533,233.935 101.340,231.881 101.164 C 226.449 100.700,210.977 100.702,206.032 101.167 C 191.399 102.542,181.234 104.920,170.704 109.433 C 163.162 112.664,151.914 119.721,145.811 125.049 C 129.739 139.082,119.839 156.249,116.061 176.640 C 109.197 213.686,124.436 245.473,149.799 247.015 C 158.713 247.557,163.118 245.487,166.233 239.292 C 167.635 236.503,166.726 234.302,163.849 233.517 C 155.389 231.210,150.202 224.524,146.982 211.776 C 145.210 204.761,145.285 192.217,147.154 182.958 C 149.898 169.368,153.468 160.814,160.779 150.311 C 173.881 131.491,196.613 119.882,220.393 119.867 C 252.467 119.846,277.024 136.842,285.974 165.255 C 290.078 178.283,291.102 193.359,288.926 208.712 C 287.845 216.338,284.866 226.830,282.031 232.996 C 281.725 233.661,281.474 234.249,281.474 234.301 C 281.474 234.353,280.781 235.776,279.934 237.463 C 275.847 245.600,270.139 253.075,264.337 257.889 C 263.494 258.588,262.762 259.209,262.709 259.268 C 261.063 261.130,253.713 265.257,249.593 266.633 C 246.156 267.780,238.018 269.029,237.213 268.531 C 236.994 268.396,237.024 193.862,237.247 185.448 C 237.568 173.340,239.086 165.445,242.402 158.640 C 244.729 153.864,246.780 151.875,253.488 147.884 C 256.485 146.102,257.027 142.117,254.466 140.692 C 252.416 139.551,237.534 140.893,231.403 142.771 C 225.646 144.535,220.032 147.289,213.567 151.521 C 202.394 158.837,197.885 160.627,190.582 160.647 C 188.519 160.653,187.458 161.483,187.458 163.090 C 187.458 163.552,188.330 164.672,188.690 164.672 C 189.184 164.672,191.655 166.603,192.895 167.959 C 195.125 170.395,195.909 171.893,196.689 175.203 L 197.117 177.022 197.174 255.768 L 197.230 334.514 196.788 334.514 C 194.476 334.514,186.281 333.025,180.852 331.618 C 157.891 325.669,134.478 315.256,114.696 302.195 C 112.537 300.769,109.629 298.752,108.234 297.711 L 105.697 295.818 105.697 189.372 C 105.697 93.918,105.727 82.900,105.990 82.679 C 106.152 82.543,106.389 82.345,106.517 82.238 C 106.645 82.132,106.965 81.933,107.228 81.798 C 107.783 81.512,108.426 81.131,109.239 80.606 C 109.555 80.402,110.007 80.150,110.244 80.046 C 110.481 79.942,110.675 79.768,110.675 79.660 C 110.675 79.552,110.812 79.464,110.980 79.464 C 111.148 79.464,111.504 79.292,111.772 79.081 C 112.039 78.870,112.376 78.698,112.520 78.698 C 112.664 78.698,112.781 78.631,112.781 78.548 C 112.781 78.466,113.018 78.297,113.308 78.172 C 113.597 78.048,113.985 77.857,114.169 77.747 C 115.006 77.252,115.207 77.148,115.701 76.953 C 115.991 76.839,116.228 76.668,116.228 76.573 C 116.228 76.478,116.390 76.400,116.587 76.400 C 116.785 76.400,117.054 76.271,117.185 76.113 C 117.316 75.955,117.575 75.826,117.760 75.826 C 117.945 75.826,118.203 75.697,118.334 75.539 C 118.465 75.381,118.699 75.251,118.854 75.251 C 119.009 75.251,119.354 75.079,119.622 74.868 C 119.890 74.658,120.233 74.485,120.384 74.485 C 120.535 74.485,120.788 74.356,120.946 74.198 C 121.104 74.040,121.389 73.911,121.580 73.911 C 121.770 73.911,122.033 73.782,122.164 73.624 C 122.295 73.466,122.553 73.337,122.738 73.337 C 122.923 73.337,123.181 73.207,123.313 73.049 C 123.444 72.891,123.707 72.762,123.897 72.762 C 124.087 72.762,124.372 72.633,124.530 72.475 C 124.688 72.317,124.933 72.188,125.075 72.188 C 125.217 72.188,125.504 72.069,125.711 71.925 C 125.919 71.780,126.369 71.601,126.711 71.527 C 127.054 71.452,127.334 71.316,127.334 71.224 C 127.334 71.132,127.632 71.000,127.997 70.932 C 128.362 70.863,128.760 70.687,128.882 70.540 C 129.004 70.393,129.298 70.273,129.536 70.273 C 129.773 70.273,130.075 70.144,130.206 69.986 C 130.337 69.828,130.682 69.698,130.972 69.698 C 131.262 69.698,131.607 69.569,131.738 69.411 C 131.869 69.253,132.170 69.124,132.408 69.124 C 132.645 69.124,132.939 69.004,133.061 68.857 C 133.183 68.710,133.578 68.534,133.938 68.467 C 134.299 68.399,134.834 68.218,135.128 68.065 C 135.422 67.911,135.857 67.785,136.094 67.785 C 136.331 67.784,136.525 67.701,136.525 67.601 C 136.525 67.500,136.848 67.359,137.243 67.286 C 137.638 67.214,138.131 67.038,138.338 66.895 C 138.546 66.752,138.945 66.635,139.225 66.635 C 139.504 66.635,139.840 66.506,139.971 66.348 C 140.102 66.190,140.490 66.060,140.833 66.060 C 141.176 66.060,141.554 65.942,141.674 65.798 C 141.794 65.653,142.289 65.490,142.774 65.436 C 143.260 65.381,143.711 65.251,143.777 65.147 C 143.843 65.043,144.284 64.894,144.758 64.815 C 145.232 64.736,145.790 64.554,145.998 64.409 C 146.205 64.264,146.641 64.146,146.966 64.146 C 147.291 64.146,147.725 64.019,147.929 63.864 C 148.133 63.710,148.645 63.578,149.067 63.571 C 149.488 63.564,150.000 63.432,150.204 63.278 C 150.409 63.123,150.931 62.997,151.364 62.997 C 151.798 62.997,152.320 62.870,152.524 62.716 C 152.729 62.561,153.289 62.432,153.769 62.428 C 154.249 62.425,154.809 62.296,155.014 62.141 C 155.218 61.986,155.773 61.857,156.247 61.853 C 156.721 61.849,157.348 61.721,157.640 61.568 C 157.932 61.416,158.707 61.235,159.363 61.167 C 160.019 61.098,160.925 60.922,161.376 60.775 C 161.827 60.628,162.559 60.506,163.003 60.505 C 163.447 60.503,164.155 60.377,164.576 60.226 C 164.998 60.074,165.956 59.946,166.706 59.941 C 167.457 59.937,168.437 59.804,168.885 59.646 C 169.332 59.488,170.313 59.357,171.063 59.356 C 171.813 59.354,172.944 59.228,173.576 59.075 C 174.232 58.917,175.791 58.787,177.214 58.772 C 178.583 58.757,180.694 58.637,181.905 58.505 C 185.028 58.164,192.903 58.160,196.170 58.499 M66.202 187.602 C 66.152 251.921,66.124 257.040,65.818 259.263 C 65.315 262.911,64.293 268.418,63.637 271.018 C 62.431 275.794,59.923 283.191,58.112 287.315 C 57.974 287.630,57.621 288.449,57.329 289.134 C 56.009 292.226,52.170 299.489,50.093 302.823 C 48.126 305.980,44.322 311.345,44.050 311.345 C 43.811 311.345,43.466 310.883,43.466 310.564 C 43.466 310.388,43.337 310.136,43.179 310.005 C 43.021 309.874,42.891 309.572,42.891 309.335 C 42.891 309.097,42.762 308.796,42.604 308.664 C 42.446 308.533,42.317 308.275,42.317 308.090 C 42.317 307.905,42.188 307.647,42.030 307.516 C 41.872 307.384,41.742 307.136,41.742 306.963 C 41.742 306.790,41.570 306.327,41.360 305.934 C 41.149 305.541,40.977 305.100,40.977 304.955 C 40.977 304.809,40.847 304.583,40.689 304.452 C 40.531 304.321,40.402 304.019,40.402 303.782 C 40.402 303.544,40.273 303.243,40.115 303.112 C 39.957 302.980,39.828 302.746,39.828 302.590 C 39.828 302.303,39.452 301.347,38.954 300.367 C 38.803 300.069,38.679 299.723,38.679 299.599 C 38.679 299.474,38.506 299.050,38.296 298.658 C 38.085 298.265,37.910 297.792,37.907 297.607 C 37.903 297.423,37.774 297.104,37.620 296.900 C 37.465 296.695,37.338 296.297,37.338 296.014 C 37.338 295.731,37.209 295.392,37.051 295.261 C 36.893 295.130,36.764 294.791,36.764 294.508 C 36.764 294.225,36.637 293.826,36.483 293.622 C 36.328 293.418,36.199 293.076,36.196 292.862 C 36.192 292.649,36.072 292.304,35.929 292.096 C 35.785 291.888,35.621 291.460,35.564 291.144 C 35.456 290.552,34.975 289.112,34.528 288.051 C 34.389 287.720,34.272 287.246,34.269 286.998 C 34.265 286.751,34.136 286.381,33.981 286.177 C 33.827 285.972,33.700 285.531,33.700 285.195 C 33.700 284.860,33.571 284.478,33.413 284.347 C 33.255 284.215,33.126 283.813,33.126 283.452 C 33.126 283.091,33.008 282.563,32.864 282.279 C 32.719 281.994,32.542 281.354,32.470 280.857 C 32.397 280.359,32.262 279.904,32.169 279.847 C 32.075 279.789,31.944 279.335,31.876 278.837 C 31.809 278.339,31.631 277.661,31.482 277.329 C 31.333 276.997,31.211 276.512,31.211 276.251 C 31.211 275.990,31.082 275.467,30.924 275.089 C 30.766 274.711,30.637 274.108,30.637 273.749 C 30.637 273.390,30.507 272.787,30.349 272.409 C 30.191 272.031,30.062 271.347,30.062 270.890 C 30.062 270.433,29.936 269.892,29.781 269.687 C 29.624 269.480,29.497 268.893,29.493 268.358 C 29.489 267.831,29.370 267.180,29.229 266.909 C 29.088 266.639,28.911 265.741,28.836 264.913 C 28.761 264.086,28.621 263.262,28.525 263.082 C 28.429 262.902,28.269 262.034,28.170 261.153 C 28.072 260.271,27.899 259.205,27.786 258.784 C 27.674 258.363,27.579 257.415,27.575 256.678 C 27.572 255.941,27.441 254.915,27.284 254.398 C 27.127 253.881,26.996 252.760,26.992 251.908 C 26.988 251.056,26.862 249.799,26.711 249.114 C 26.557 248.411,26.433 246.788,26.427 245.381 C 26.421 244.011,26.291 241.513,26.138 239.828 C 25.820 236.315,25.773 228.482,26.053 225.658 C 26.158 224.605,26.322 221.891,26.417 219.627 C 26.513 217.362,26.681 215.165,26.790 214.744 C 26.900 214.323,26.991 213.281,26.994 212.429 C 26.997 211.577,27.127 210.456,27.284 209.939 C 27.441 209.423,27.570 208.390,27.571 207.646 C 27.572 206.902,27.693 205.868,27.840 205.348 C 27.987 204.829,28.162 203.764,28.228 202.982 C 28.294 202.200,28.425 201.468,28.519 201.355 C 28.612 201.241,28.746 200.503,28.816 199.713 C 28.886 198.923,29.066 197.952,29.216 197.555 C 29.365 197.158,29.491 196.425,29.494 195.927 C 29.497 195.429,29.626 194.854,29.781 194.650 C 29.936 194.445,30.063 193.885,30.063 193.405 C 30.064 192.925,30.193 192.286,30.351 191.984 C 30.508 191.682,30.640 191.079,30.643 190.644 C 30.647 190.208,30.773 189.636,30.924 189.373 C 31.074 189.110,31.201 188.593,31.206 188.224 C 31.210 187.855,31.333 187.325,31.479 187.045 C 31.625 186.765,31.805 186.097,31.879 185.561 C 31.953 185.025,32.086 184.541,32.175 184.486 C 32.265 184.431,32.398 183.987,32.471 183.500 C 32.544 183.013,32.720 182.391,32.863 182.116 C 33.007 181.842,33.127 181.360,33.131 181.044 C 33.135 180.728,33.265 180.302,33.419 180.097 C 33.574 179.893,33.700 179.458,33.700 179.130 C 33.700 178.803,33.797 178.439,33.915 178.321 C 34.033 178.203,34.199 177.776,34.285 177.373 C 34.467 176.515,34.969 174.979,35.349 174.121 C 35.495 173.790,35.618 173.316,35.621 173.068 C 35.625 172.821,35.754 172.451,35.908 172.247 C 36.063 172.042,36.192 171.698,36.196 171.481 C 36.199 171.264,36.328 170.919,36.483 170.715 C 36.637 170.511,36.764 170.112,36.764 169.829 C 36.764 169.546,36.893 169.207,37.051 169.076 C 37.209 168.945,37.338 168.600,37.338 168.310 C 37.338 168.020,37.468 167.675,37.626 167.544 C 37.784 167.413,37.913 167.080,37.914 166.803 C 37.915 166.526,38.087 166.041,38.296 165.725 C 38.505 165.409,38.677 165.007,38.678 164.831 C 38.678 164.655,38.801 164.268,38.949 163.970 C 39.213 163.442,39.562 162.640,40.082 161.369 C 40.223 161.027,40.490 160.402,40.676 159.981 C 40.862 159.560,41.128 158.956,41.266 158.640 C 41.404 158.325,41.690 157.678,41.902 157.204 C 42.113 156.730,42.335 156.213,42.396 156.056 C 42.456 155.898,42.583 155.639,42.678 155.481 C 42.772 155.323,43.001 154.849,43.186 154.428 C 43.371 154.007,43.596 153.533,43.687 153.375 C 43.777 153.217,43.902 152.958,43.964 152.800 C 44.026 152.642,44.111 152.427,44.153 152.322 C 44.195 152.216,44.310 152.001,44.408 151.843 C 44.507 151.685,44.636 151.427,44.695 151.269 C 44.755 151.111,44.881 150.852,44.975 150.694 C 45.069 150.536,45.377 149.933,45.658 149.354 C 45.940 148.775,46.245 148.171,46.336 148.013 C 46.427 147.855,46.552 147.597,46.613 147.439 C 46.675 147.281,46.896 146.893,47.104 146.577 C 47.312 146.261,47.518 145.917,47.562 145.811 C 47.606 145.706,47.693 145.491,47.756 145.333 C 47.819 145.175,48.174 144.528,48.544 143.897 C 48.914 143.265,49.322 142.532,49.451 142.269 C 49.579 142.006,49.793 141.676,49.926 141.537 C 50.059 141.398,50.168 141.209,50.168 141.116 C 50.168 141.024,50.417 140.577,50.722 140.124 C 51.026 139.672,51.463 138.956,51.691 138.535 C 51.920 138.114,52.445 137.252,52.859 136.620 C 53.272 135.989,53.696 135.275,53.801 135.036 C 53.981 134.624,54.156 134.379,54.715 133.755 C 54.847 133.608,54.955 133.408,54.955 133.311 C 54.955 133.213,55.256 132.738,55.625 132.255 C 55.993 131.773,56.295 131.320,56.295 131.250 C 56.295 131.180,56.553 130.796,56.869 130.397 C 57.185 129.998,57.444 129.616,57.444 129.547 C 57.444 129.392,59.122 127.095,59.917 126.161 C 60.242 125.780,60.507 125.401,60.507 125.320 C 60.507 125.145,61.870 123.437,62.084 123.345 C 62.165 123.309,62.231 123.194,62.231 123.087 C 62.231 122.981,62.406 122.665,62.619 122.385 C 63.312 121.478,64.040 120.582,64.481 120.095 C 64.718 119.833,64.911 119.566,64.911 119.501 C 64.911 119.302,65.873 118.334,66.071 118.334 C 66.191 118.334,66.238 142.798,66.202 187.602 M241.934 289.132 C 254.037 291.140,262.120 301.104,269.881 323.585 C 270.260 324.683,270.503 325.646,270.422 325.725 C 270.340 325.805,269.672 326.187,268.938 326.575 C 268.204 326.963,267.040 327.645,266.353 328.091 C 259.091 332.805,251.851 335.680,245.381 336.420 C 242.921 336.701,237.572 336.682,237.281 336.391 C 237.105 336.214,237.051 330.638,237.051 312.456 L 237.051 288.751 238.344 288.751 C 239.055 288.751,240.670 288.922,241.934 289.132 M90.884 320.628 C 97.121 321.262,102.897 323.225,108.857 326.735 C 110.909 327.943,110.993 327.995,112.206 328.797 C 112.785 329.181,114.423 330.249,115.845 331.170 C 119.958 333.836,121.128 334.603,127.717 338.955 C 139.970 347.050,142.617 348.746,145.524 350.366 C 145.998 350.630,147.592 351.537,149.067 352.382 C 153.191 354.745,161.299 358.815,166.587 361.178 C 167.061 361.389,167.793 361.716,168.214 361.904 C 175.265 365.051,183.941 367.293,193.442 368.423 L 197.224 368.873 197.219 373.666 C 197.216 376.302,197.132 380.491,197.032 382.974 C 196.797 388.798,196.480 391.864,195.519 397.607 C 195.134 399.909,194.311 403.573,193.905 404.787 L 193.490 406.032 188.416 406.029 C 182.636 406.027,175.624 405.665,173.428 405.256 C 172.610 405.103,171.393 404.978,170.724 404.978 C 170.055 404.978,169.141 404.849,168.693 404.691 C 168.235 404.530,167.199 404.401,166.323 404.397 C 165.337 404.393,164.593 404.290,164.289 404.117 C 164.026 403.966,163.293 403.837,162.662 403.830 C 161.966 403.822,161.366 403.706,161.141 403.536 C 160.918 403.368,160.343 403.255,159.705 403.254 C 159.119 403.253,158.394 403.124,158.092 402.967 C 157.790 402.809,157.227 402.681,156.841 402.681 C 156.454 402.681,155.648 402.508,155.048 402.298 C 154.449 402.087,153.751 401.915,153.497 401.915 C 153.243 401.915,152.789 401.786,152.487 401.629 C 152.186 401.471,151.594 401.339,151.173 401.335 C 150.752 401.331,150.240 401.202,150.035 401.047 C 149.831 400.892,149.303 400.766,148.862 400.766 C 148.383 400.766,147.964 400.650,147.822 400.479 C 147.691 400.321,147.314 400.188,146.985 400.185 C 146.655 400.181,146.170 400.055,145.907 399.904 C 145.644 399.754,145.213 399.627,144.950 399.623 C 144.686 399.618,144.248 399.498,143.975 399.356 C 143.701 399.213,143.167 399.038,142.786 398.967 C 142.405 398.895,141.853 398.711,141.559 398.558 C 141.265 398.405,140.824 398.279,140.580 398.278 C 140.335 398.277,140.006 398.147,139.848 397.989 C 139.690 397.831,139.319 397.702,139.024 397.702 C 138.728 397.702,138.379 397.573,138.248 397.415 C 138.117 397.257,137.778 397.128,137.495 397.128 C 137.212 397.128,136.814 397.001,136.609 396.847 C 136.405 396.692,136.011 396.563,135.734 396.559 C 135.458 396.556,135.124 396.424,134.993 396.266 C 134.862 396.108,134.549 395.979,134.299 395.979 C 134.048 395.979,133.521 395.807,133.128 395.596 C 132.735 395.385,132.261 395.213,132.076 395.213 C 131.890 395.213,131.738 395.134,131.738 395.037 C 131.738 394.940,131.458 394.800,131.115 394.725 C 130.773 394.651,130.323 394.471,130.115 394.327 C 129.908 394.182,129.595 394.064,129.421 394.064 C 129.246 394.064,128.997 393.935,128.865 393.777 C 128.734 393.619,128.439 393.490,128.208 393.490 C 127.978 393.490,127.623 393.363,127.418 393.209 C 127.214 393.054,126.888 392.925,126.694 392.921 C 126.500 392.918,126.122 392.743,125.854 392.532 C 125.586 392.322,125.217 392.149,125.034 392.149 C 124.850 392.149,124.593 392.020,124.461 391.862 C 124.330 391.704,124.072 391.575,123.887 391.575 C 123.702 391.575,123.444 391.446,123.313 391.288 C 123.181 391.130,122.906 391.000,122.701 391.000 C 122.496 391.000,122.199 390.871,122.041 390.713 C 121.883 390.555,121.598 390.426,121.408 390.426 C 121.217 390.426,120.954 390.297,120.823 390.139 C 120.692 389.981,120.434 389.852,120.249 389.852 C 120.064 389.852,119.806 389.722,119.674 389.564 C 119.543 389.406,119.280 389.277,119.090 389.277 C 118.900 389.277,118.627 389.159,118.482 389.015 C 118.338 388.871,118.038 388.695,117.816 388.625 C 117.593 388.554,117.307 388.371,117.179 388.217 C 117.051 388.063,116.796 387.937,116.611 387.937 C 116.426 387.937,116.167 387.808,116.036 387.650 C 115.905 387.492,115.636 387.362,115.438 387.362 C 115.241 387.362,115.079 387.285,115.079 387.190 C 115.079 387.095,114.842 386.924,114.552 386.809 C 114.263 386.695,113.875 386.515,113.691 386.408 C 113.506 386.301,113.205 386.126,113.021 386.019 C 112.836 385.912,112.449 385.732,112.159 385.618 C 111.869 385.503,111.632 385.332,111.632 385.237 C 111.632 385.142,111.516 385.065,111.374 385.065 C 111.233 385.065,110.918 384.892,110.675 384.682 C 110.432 384.471,110.117 384.299,109.975 384.299 C 109.834 384.299,109.718 384.221,109.718 384.126 C 109.718 384.031,109.459 383.863,109.143 383.753 C 108.827 383.643,108.569 383.462,108.569 383.351 C 108.569 383.240,108.436 383.150,108.274 383.150 C 107.975 383.150,106.803 382.408,106.686 382.145 C 106.651 382.066,106.513 382.001,106.380 382.001 C 106.247 382.001,105.939 381.829,105.697 381.618 C 105.454 381.407,105.173 381.235,105.072 381.235 C 104.972 381.235,104.564 380.977,104.165 380.661 C 103.766 380.345,103.382 380.086,103.312 380.086 C 103.242 380.086,102.812 379.806,102.356 379.464 C 101.901 379.122,101.336 378.712,101.101 378.554 C 100.866 378.396,100.476 378.116,100.235 377.932 C 99.993 377.748,99.702 377.597,99.587 377.597 C 99.472 377.597,99.378 377.509,99.378 377.401 C 99.378 377.293,99.184 377.121,98.947 377.018 C 98.426 376.793,97.894 376.451,97.463 376.065 C 97.287 375.907,96.943 375.649,96.699 375.491 C 96.454 375.333,96.119 375.053,95.954 374.868 C 95.789 374.684,95.554 374.533,95.430 374.533 C 95.307 374.533,95.157 374.404,95.096 374.246 C 95.035 374.088,94.854 373.959,94.692 373.959 C 94.531 373.959,94.399 373.871,94.399 373.763 C 94.399 373.655,94.184 373.484,93.921 373.384 C 93.657 373.284,93.442 373.114,93.442 373.006 C 93.442 372.898,93.322 372.810,93.175 372.810 C 93.028 372.810,92.859 372.681,92.798 372.523 C 92.738 372.365,92.560 372.236,92.404 372.236 C 92.248 372.236,92.052 372.125,91.967 371.989 C 91.883 371.854,91.387 371.402,90.865 370.984 C 90.342 370.567,89.776 370.096,89.606 369.938 C 89.437 369.780,88.975 369.392,88.580 369.076 C 88.186 368.760,87.668 368.329,87.431 368.119 C 87.193 367.908,86.587 367.391,86.083 366.970 C 85.580 366.549,84.827 365.886,84.411 365.497 C 83.994 365.109,82.915 364.118,82.012 363.295 C 79.062 360.608,73.154 354.603,71.324 352.433 C 70.799 351.809,69.991 350.904,69.530 350.422 C 68.722 349.577,66.772 347.225,64.854 344.781 C 64.348 344.136,63.727 343.384,63.474 343.109 C 63.220 342.833,62.669 342.101,62.247 341.481 C 61.826 340.861,60.853 339.527,60.085 338.515 C 59.317 337.504,58.559 336.481,58.401 336.243 C 58.243 336.005,57.963 335.613,57.779 335.371 C 57.595 335.130,57.444 334.872,57.444 334.799 C 57.444 334.725,57.185 334.339,56.869 333.940 C 56.553 333.541,56.295 333.150,56.295 333.070 C 56.295 332.991,55.993 332.558,55.625 332.108 C 55.256 331.658,54.955 331.215,54.955 331.124 C 54.955 331.032,54.700 330.659,54.388 330.294 C 54.076 329.930,53.818 329.509,53.813 329.359 C 53.809 329.210,53.663 328.929,53.488 328.736 C 53.313 328.543,53.205 328.352,53.248 328.313 C 53.392 328.183,56.171 327.002,57.439 326.531 C 58.126 326.277,59.507 325.765,60.507 325.395 C 69.174 322.187,74.516 321.067,83.964 320.474 C 86.315 320.326,88.370 320.372,90.884 320.628 M273.811 337.099 C 274.750 340.794,276.557 347.601,277.471 350.886 C 277.999 352.781,278.610 355.022,278.829 355.864 C 279.048 356.707,279.382 357.913,279.571 358.545 C 279.761 359.177,280.232 360.857,280.620 362.279 C 281.511 365.554,282.643 369.338,283.407 371.604 C 283.734 372.572,283.972 373.447,283.935 373.548 C 283.848 373.784,281.138 375.874,280.918 375.874 C 280.825 375.874,280.700 376.003,280.639 376.161 C 280.579 376.319,280.397 376.448,280.236 376.448 C 280.075 376.448,279.943 376.537,279.943 376.646 C 279.943 376.754,279.792 376.899,279.607 376.968 C 279.283 377.088,278.222 377.775,278.028 377.990 C 277.975 378.048,277.587 378.302,277.166 378.554 C 276.745 378.806,276.347 379.090,276.282 379.184 C 276.145 379.384,275.397 379.836,274.916 380.010 C 274.732 380.076,274.581 380.209,274.581 380.305 C 274.581 380.400,274.387 380.562,274.150 380.665 C 273.686 380.866,273.442 381.015,272.101 381.917 C 271.622 382.240,271.101 382.564,270.943 382.637 C 270.785 382.711,270.397 382.941,270.081 383.149 C 269.765 383.357,269.335 383.618,269.124 383.730 C 268.662 383.974,268.237 384.234,267.152 384.933 C 266.699 385.225,266.139 385.548,265.907 385.650 C 265.676 385.753,265.227 386.006,264.911 386.214 C 264.596 386.422,264.208 386.642,264.050 386.704 C 263.892 386.765,263.633 386.892,263.475 386.985 C 263.317 387.079,262.714 387.386,262.135 387.667 C 261.556 387.949,261.039 388.233,260.986 388.298 C 260.807 388.518,258.117 389.852,257.851 389.852 C 257.705 389.852,257.479 389.981,257.348 390.139 C 257.217 390.297,256.958 390.426,256.774 390.426 C 256.589 390.426,256.330 390.555,256.199 390.713 C 256.068 390.871,255.805 391.000,255.615 391.000 C 255.425 391.000,255.140 391.130,254.982 391.288 C 254.824 391.446,254.578 391.575,254.436 391.575 C 254.294 391.575,254.008 391.693,253.800 391.836 C 253.593 391.980,253.211 392.164,252.953 392.245 C 252.695 392.325,252.365 392.509,252.221 392.653 C 252.077 392.797,251.761 392.915,251.518 392.915 C 251.275 392.915,250.969 393.045,250.838 393.202 C 250.707 393.360,250.405 393.490,250.168 393.490 C 249.930 393.490,249.628 393.619,249.497 393.777 C 249.366 393.935,249.060 394.064,248.817 394.064 C 248.575 394.064,248.247 394.193,248.089 394.351 C 247.931 394.509,247.639 394.639,247.441 394.639 C 247.243 394.639,246.914 394.765,246.710 394.920 C 246.505 395.074,246.207 395.204,246.048 395.207 C 245.888 395.210,245.436 395.385,245.043 395.596 C 244.650 395.807,244.178 395.982,243.993 395.985 C 243.808 395.988,243.490 396.118,243.286 396.272 C 242.514 396.856,241.921 396.636,240.872 395.375 C 237.452 391.265,237.000 388.488,237.094 372.143 L 237.147 362.955 238.487 362.418 C 243.116 360.563,249.111 357.288,252.561 354.731 C 253.857 353.771,257.358 350.963,258.415 350.037 C 261.575 347.268,262.571 346.341,265.217 343.708 C 267.945 340.995,270.817 337.819,272.465 335.693 C 273.218 334.721,273.202 334.704,273.811 337.099 " stroke="none" fill="#000000" fill-rule="evenodd"></path></g></svg>