<?xml version="1.0" standalone="no"?>
<!DOCTYPE svg PUBLIC "-//W3C//DTD SVG 20010904//EN"
 "http://www.w3.org/TR/2001/REC-SVG-20010904/DTD/svg10.dtd">
<svg version="1.0" xmlns="http://www.w3.org/2000/svg"
 width="1600.000000pt" height="1600.000000pt" viewBox="0 0 1600.000000 1600.000000"
 preserveAspectRatio="xMidYMid meet">

<g transform="translate(0.000000,1600.000000) scale(0.100000,-0.100000)"
fill="#000000" stroke="none">
<path d="M10954 15600 c-535 -81 -1148 -351 -1624 -716 -587 -449 -1066 -1181
-1244 -1901 -67 -269 -80 -378 -80 -675 -1 -207 2 -270 12 -280 10 -10 59 -13
205 -12 221 2 394 27 602 88 564 165 1105 548 1583 1120 300 361 530 769 660
1176 113 353 162 758 136 1128 l-7 92 -61 -1 c-34 0 -115 -9 -182 -19z"/>
<path d="M10595 11995 c-379 -39 -767 -140 -1340 -347 -324 -117 -778 -268
-930 -310 -168 -45 -288 -45 -465 1 -200 52 -451 134 -815 266 -611 222 -927
309 -1270 350 -391 48 -940 -19 -1395 -168 -354 -117 -731 -311 -1060 -547
-338 -242 -684 -601 -929 -965 -462 -685 -712 -1422 -793 -2340 -20 -230 -17
-909 5 -1155 76 -837 267 -1647 587 -2480 364 -947 765 -1649 1442 -2522 485
-625 918 -1024 1333 -1228 335 -164 636 -208 1015 -146 262 42 539 127 1005
309 579 226 1097 311 1596 262 349 -33 670 -119 1124 -298 198 -78 478 -170
625 -206 461 -111 814 -100 1180 36 563 209 1042 663 1749 1656 479 674 811
1309 1097 2101 36 98 61 182 57 186 -4 4 -42 22 -83 40 -252 109 -537 289
-787 494 -155 128 -413 390 -531 538 -378 476 -587 975 -674 1609 -19 141 -22
207 -22 469 0 260 3 329 22 465 56 403 149 707 320 1039 252 491 674 938 1217
1291 66 43 124 82 129 86 17 15 -215 300 -378 464 -603 603 -1406 955 -2401
1050 -186 18 -460 18 -630 0z"/>
</g>
</svg>
