<?xml version="1.0" standalone="no"?>
<!DOCTYPE svg PUBLIC "-//W3C//DTD SVG 20010904//EN"
 "http://www.w3.org/TR/2001/REC-SVG-20010904/DTD/svg10.dtd">
<svg version="1.0" xmlns="http://www.w3.org/2000/svg"
 width="1350.000000pt" height="1766.000000pt" viewBox="0 0 1350.000000 1766.000000"
 preserveAspectRatio="xMidYMid meet">

<g transform="translate(0.000000,1766.000000) scale(0.100000,-0.100000)"
fill="#000000" stroke="none">
<path d="M8675 16643 c-391 -8 -832 -26 -975 -39 -767 -71 -1208 -277 -1779
-829 -393 -380 -683 -797 -867 -1246 -24 -59 -77 -202 -118 -316 l-73 -208 -8
-740 c-4 -407 -11 -906 -14 -1110 l-6 -370 -790 -6 c-823 -6 -885 -9 -1027
-53 -111 -33 -191 -105 -273 -246 -64 -110 -82 -160 -94 -273 -14 -124 -15
-1431 -1 -1621 19 -255 56 -379 142 -472 57 -62 204 -158 263 -173 100 -25
286 -31 1026 -31 l756 0 6 -367 c4 -203 7 -1146 7 -2098 1 -2134 16 -4732 30
-5040 17 -379 24 -400 170 -546 110 -109 167 -142 280 -160 101 -16 2265 -25
2530 -10 275 15 308 29 462 188 96 101 111 124 127 203 34 171 46 905 61 3670
5 1031 13 2385 16 3008 l7 1132 109 0 c156 0 1032 18 1488 30 553 16 643 27
739 93 78 53 150 132 181 199 72 157 84 321 84 1188 -1 880 -3 906 -104 1086
-62 109 -148 194 -225 223 -163 62 -335 71 -1404 71 l-894 0 6 318 c5 328 19
477 58 661 45 205 130 411 231 558 68 100 223 255 315 316 184 122 339 153
939 187 514 29 645 47 772 107 99 46 200 168 257 310 45 111 48 187 42 928 -7
699 -16 944 -41 1047 -28 122 -167 294 -280 347 -81 39 -228 68 -414 80 -133
10 -1331 12 -1717 4z"/>
</g>
</svg>
