<?xml version="1.0" standalone="no"?>
<!DOCTYPE svg PUBLIC "-//W3C//DTD SVG 20010904//EN"
 "http://www.w3.org/TR/2001/REC-SVG-20010904/DTD/svg10.dtd">
<svg version="1.0" xmlns="http://www.w3.org/2000/svg"
 width="763.000000pt" height="763.000000pt" viewBox="0 0 763.000000 763.000000"
 preserveAspectRatio="xMidYMid meet">

<g transform="translate(0.000000,763.000000) scale(0.100000,-0.100000)"
fill="#000000" stroke="none">
<path d="M2450 7021 c-79 -25 -149 -77 -188 -139 -17 -26 -225 -400 -462 -832
-238 -432 -530 -960 -648 -1175 -974 -1766 -1130 -2051 -1142 -2089 -18 -56
-8 -151 23 -212 30 -60 92 -118 156 -148 46 -21 53 -21 834 -24 l787 -2 0
-783 c0 -869 -2 -836 66 -915 19 -22 62 -54 96 -71 l61 -31 492 0 c556 0 549
-1 634 76 29 26 58 65 72 96 l24 53 3 792 3 793 -240 0 c-270 0 -304 6 -387
69 -36 27 -59 56 -86 110 -41 78 -48 131 -27 205 6 22 290 545 631 1163 l620
1124 -473 905 c-369 707 -481 914 -513 946 -62 62 -134 92 -231 95 -44 1 -91
-1 -105 -6z"/>
<path d="M4980 7014 c-58 -21 -123 -66 -154 -107 -23 -30 -71 -117 -341 -622
-65 -121 -150 -281 -190 -355 -40 -74 -121 -225 -180 -335 -59 -110 -145 -271
-192 -358 l-85 -157 110 -198 c60 -108 126 -228 147 -267 21 -38 68 -124 105
-190 37 -66 106 -192 155 -280 48 -88 123 -223 165 -300 43 -77 136 -246 207
-375 72 -129 183 -331 248 -448 111 -202 118 -218 122 -280 7 -91 -21 -165
-87 -232 -87 -89 -106 -94 -400 -100 l-255 -5 0 -790 0 -790 24 -53 c29 -65
104 -134 168 -156 70 -24 1046 -24 1116 0 62 21 135 87 163 149 l24 50 0 731
c0 402 3 759 6 792 l7 62 771 2 771 3 57 28 c65 32 121 90 150 157 16 36 19
62 16 130 -3 98 36 17 -360 735 -119 215 -313 567 -432 782 -119 216 -313 570
-432 785 -532 965 -642 1164 -825 1497 -116 211 -211 373 -237 402 -62 69
-134 102 -236 106 -57 2 -94 -2 -126 -13z"/>
</g>
</svg>
