<?xml version="1.0" standalone="no"?>
<!DOCTYPE svg PUBLIC "-//W3C//DTD SVG 20010904//EN"
 "http://www.w3.org/TR/2001/REC-SVG-20010904/DTD/svg10.dtd">
<svg version="1.0" xmlns="http://www.w3.org/2000/svg"
 width="512.000000pt" height="512.000000pt" viewBox="0 0 512.000000 512.000000"
 preserveAspectRatio="xMidYMid meet">

<g transform="translate(0.000000,512.000000) scale(0.100000,-0.100000)"
fill="#000000" stroke="none">
<path d="M427 3842 l-427 -427 428 -428 427 -427 428 427 427 428 427 -428
428 -427 -428 -428 -427 -427 428 -428 427 -427 423 423 c232 232 422 427 422
432 0 5 -190 200 -422 432 l-423 423 423 423 c232 232 422 427 422 432 0 5
-190 200 -422 432 l-423 423 -427 -427 -428 -428 -428 428 -427 427 -428 -428z"/>
<path d="M3842 3837 l-422 -422 425 -425 425 -425 425 425 425 425 -422 422
c-233 233 -425 423 -428 423 -3 0 -195 -190 -428 -423z"/>
</g>
</svg>
