<?xml version="1.0" standalone="no"?>
<!DOCTYPE svg PUBLIC "-//W3C//DTD SVG 20010904//EN"
 "http://www.w3.org/TR/2001/REC-SVG-20010904/DTD/svg10.dtd">
<svg version="1.0" xmlns="http://www.w3.org/2000/svg"
 width="1600.000000pt" height="1600.000000pt" viewBox="0 0 1600.000000 1600.000000"
 preserveAspectRatio="xMidYMid meet">

<g transform="translate(0.000000,1600.000000) scale(0.100000,-0.100000)"
fill="#000000" stroke="none">
<path d="M10585 14099 c-1339 -137 -2446 -1093 -2774 -2395 -72 -285 -95 -510
-88 -847 5 -249 23 -424 62 -588 l13 -59 -42 0 c-23 0 -103 5 -177 10 -1900
147 -3660 863 -5124 2085 -388 324 -827 762 -1131 1129 -53 63 -82 91 -90 85
-18 -15 -160 -307 -208 -431 -88 -224 -154 -485 -192 -758 -25 -178 -25 -614
0 -795 88 -643 337 -1203 746 -1680 155 -180 386 -390 578 -524 34 -24 62 -45
62 -45 0 -5 -151 7 -263 20 -364 41 -739 153 -1052 313 -60 31 -114 57 -119
60 -10 4 1 -234 19 -400 63 -564 293 -1130 642 -1581 433 -560 1046 -964 1726
-1138 82 -21 145 -40 140 -43 -15 -9 -237 -56 -338 -71 -329 -49 -782 -43
-1038 14 -44 9 -45 19 10 -130 267 -720 800 -1331 1483 -1698 224 -120 554
-244 790 -296 158 -35 373 -65 520 -73 l124 -6 -35 -30 c-63 -53 -362 -263
-499 -349 -904 -570 -1919 -896 -3010 -969 -276 -18 -891 -4 -1115 26 -38 5
-39 4 -20 -11 34 -26 393 -238 540 -318 1035 -565 2202 -926 3378 -1046 361
-36 528 -44 952 -44 509 0 843 21 1285 80 2249 299 4167 1353 5600 3079 1386
1668 2171 3856 2148 5991 l-3 312 110 82 c478 360 898 780 1260 1261 99 132
205 283 205 293 0 3 -26 -7 -57 -21 -429 -189 -983 -351 -1483 -431 -311 -51
-292 -55 -154 37 184 123 325 240 499 415 282 283 471 556 641 921 49 105 138
335 132 340 -2 1 -46 -22 -98 -52 -141 -80 -465 -242 -625 -311 -366 -158
-748 -282 -1150 -371 l-140 -32 -95 92 c-498 482 -1089 774 -1775 879 -110 17
-197 22 -410 25 -148 2 -310 -1 -360 -6z"/>
</g>
</svg>
