<?xml version="1.0" standalone="no"?>
<!DOCTYPE svg PUBLIC "-//W3C//DTD SVG 20010904//EN"
 "http://www.w3.org/TR/2001/REC-SVG-20010904/DTD/svg10.dtd">
<svg version="1.0" xmlns="http://www.w3.org/2000/svg"
 width="648.000000pt" height="648.000000pt" viewBox="0 0 648.000000 648.000000"
 preserveAspectRatio="xMidYMid meet">

<g transform="translate(0.000000,648.000000) scale(0.100000,-0.100000)"
fill="#000000" stroke="none">
<path d="M2835 5224 c-714 -24 -1640 -98 -1800 -145 -216 -64 -398 -238 -469
-450 -66 -198 -102 -511 -118 -1018 -17 -587 5 -1173 57 -1497 45 -282 93
-393 230 -530 99 -99 177 -147 300 -183 124 -36 827 -100 1460 -133 309 -15
1181 -15 1490 0 575 30 1306 95 1440 127 210 52 403 226 482 434 48 126 93
412 112 701 28 429 21 1281 -14 1610 -19 178 -58 397 -86 483 -68 208 -241
380 -454 452 -108 36 -825 103 -1455 135 -201 11 -998 20 -1175 14z m692
-1494 c748 -404 763 -414 763 -490 0 -76 -15 -86 -762 -489 -499 -269 -699
-373 -731 -377 -63 -9 -114 17 -138 70 -18 39 -19 83 -19 796 0 712 1 757 19
796 12 25 31 46 52 57 73 38 74 37 816 -363z"/>
</g>
</svg>
